<svg xmlns="http://www.w3.org/2000/svg" xmlns:xlink="http://www.w3.org/1999/xlink">
<g id="crease-pattern">
<line x1="303.35" y1="607.14" x2="303.35" y2="518.57"   stroke="red" stroke-width="1" />
<line x1="303.35" y1="429.99" x2="214.77" y2="429.99"   stroke="red" stroke-width="1" />
<line x1="214.77" y1="518.57" x2="259.06" y2="562.86"   stroke="red" stroke-width="1" />
<line x1="214.77" y1="607.14" x2="236.92" y2="607.14"   stroke="red" stroke-width="1" />
<line x1="391.93" y1="341.41" x2="391.93" y2="429.99"   stroke="red" stroke-width="1" />
<line x1="391.93" y1="341.41" x2="347.64" y2="297.12"   stroke="red" stroke-width="1" />
<line x1="303.35" y1="341.41" x2="303.35" y2="252.83"   stroke="red" stroke-width="1" />
<line x1="480.5" y1="429.99" x2="391.93" y2="429.99"   stroke="blue" stroke-width="1" />
<line x1="391.93" y1="341.41" x2="303.35" y2="341.41"   stroke="blue" stroke-width="1" />
<line x1="480.5" y1="164.25" x2="436.22" y2="208.54"   stroke="blue" stroke-width="1" />
<line x1="347.64" y1="297.12" x2="303.35" y2="341.41"   stroke="blue" stroke-width="1" />
<line x1="347.64" y1="297.12" x2="303.35" y2="252.83"   stroke="blue" stroke-width="1" />
<line x1="303.35" y1="341.41" x2="214.77" y2="429.99"   stroke="blue" stroke-width="1" />
<line x1="569.08" y1="252.83" x2="524.79" y2="297.12"   stroke="blue" stroke-width="1" />
<line x1="436.22" y1="385.7" x2="391.93" y2="429.99"   stroke="blue" stroke-width="1" />
<line x1="436.22" y1="385.7" x2="391.93" y2="341.41"   stroke="blue" stroke-width="1" />
<line x1="569.08" y1="252.83" x2="524.79" y2="208.54"   stroke="blue" stroke-width="1" />
<line x1="391.93" y1="429.99" x2="303.35" y2="518.57"   stroke="blue" stroke-width="1" />
<line x1="303.35" y1="518.57" x2="303.35" y2="429.99"   stroke="red" stroke-width="1" />
<line x1="347.64" y1="562.86" x2="303.35" y2="518.57"   stroke="blue" stroke-width="1" />
<line x1="480.5" y1="252.83" x2="480.5" y2="164.25"   stroke="red" stroke-width="1" />
<line x1="569.08" y1="252.83" x2="480.5" y2="252.83"   stroke="red" stroke-width="1" />
<line x1="480.5" y1="75.68" x2="480.5" y2="97.82"   stroke="red" stroke-width="1" />
<line x1="569.08" y1="164.25" x2="524.79" y2="208.54"   stroke="blue" stroke-width="1" />
<line x1="524.79" y1="208.54" x2="480.5" y2="252.83"   stroke="red" stroke-width="1" />
<line x1="524.79" y1="208.54" x2="480.5" y2="164.25"   stroke="blue" stroke-width="1" />
<line x1="569.08" y1="164.25" x2="569.08" y2="252.83"   stroke="red" stroke-width="1" />
<line x1="436.22" y1="208.54" x2="391.93" y2="164.25"   stroke="red" stroke-width="1" />
<line x1="436.22" y1="208.54" x2="347.64" y2="297.12"   stroke="blue" stroke-width="1" />
<line x1="524.79" y1="297.12" x2="480.5" y2="252.83"   stroke="blue" stroke-width="1" />
<line x1="524.79" y1="297.12" x2="436.22" y2="385.7"   stroke="blue" stroke-width="1" />
<line x1="480.5" y1="252.83" x2="436.22" y2="208.54"   stroke="blue" stroke-width="1" />
<line x1="480.5" y1="75.68" x2="458.36" y2="97.82"   stroke="red" stroke-width="1" />
<line x1="391.93" y1="164.25" x2="303.35" y2="252.83"   stroke="red" stroke-width="1" />
<line x1="569.08" y1="164.25" x2="502.65" y2="97.82"   stroke="red" stroke-width="1" />
<line x1="569.08" y1="341.41" x2="569.08" y2="252.83"   stroke="blue" stroke-width="1" />
<line x1="657.66" y1="252.83" x2="569.08" y2="252.83"   stroke="blue" stroke-width="1" />
<line x1="303.35" y1="518.57" x2="259.06" y2="474.28"   stroke="blue" stroke-width="1" />
<line x1="126.19" y1="429.99" x2="303.35" y2="252.83"   stroke="blue" stroke-width="1" />
<line x1="214.77" y1="518.57" x2="126.19" y2="429.99"   stroke="blue" stroke-width="1" />
<line x1="303.35" y1="429.99" x2="259.06" y2="474.28"   stroke="blue" stroke-width="1" />
<line x1="259.06" y1="474.28" x2="214.77" y2="518.57"   stroke="red" stroke-width="1" />
<line x1="259.06" y1="474.28" x2="214.77" y2="429.99"   stroke="blue" stroke-width="1" />
<line x1="214.77" y1="429.99" x2="126.19" y2="429.99"   stroke="blue" stroke-width="1" />
<line x1="214.77" y1="607.14" x2="236.92" y2="585.0"   stroke="blue" stroke-width="1" />
<line x1="259.06" y1="562.86" x2="303.35" y2="518.57"   stroke="blue" stroke-width="1" />
<line x1="259.06" y1="562.86" x2="303.35" y2="607.14"   stroke="red" stroke-width="1" />
<line x1="480.5" y1="252.83" x2="391.93" y2="341.41"   stroke="red" stroke-width="1" />
<line x1="391.93" y1="341.41" x2="303.35" y2="429.99"   stroke="red" stroke-width="1" />
<line x1="303.35" y1="252.83" x2="206.72" y2="252.83"   stroke="red" stroke-width="1" />
<line x1="236.92" y1="186.4" x2="206.72" y2="252.83"   stroke="blue" stroke-width="1" />
<line x1="206.72" y1="252.83" x2="126.19" y2="429.99"   stroke="red" stroke-width="1" />
<line x1="236.92" y1="75.68" x2="236.92" y2="186.4"   stroke="red" stroke-width="1" />
<line x1="126.19" y1="75.68" x2="236.92" y2="186.4"   stroke="blue" stroke-width="1" />
<line x1="236.92" y1="186.4" x2="126.19" y2="186.4"   stroke="blue" stroke-width="1" />
<line x1="126.19" y1="186.4" x2="206.72" y2="252.83"   stroke="red" stroke-width="1" />
<line x1="126.19" y1="142.11" x2="236.92" y2="186.4"   stroke="red" stroke-width="1" />
<line x1="236.92" y1="186.4" x2="192.63" y2="75.68"   stroke="blue" stroke-width="1" />
<line x1="358.71" y1="131.04" x2="391.93" y2="164.25"   stroke="blue" stroke-width="1" />
<line x1="458.36" y1="97.82" x2="391.93" y2="164.25"   stroke="red" stroke-width="1" />
<line x1="502.65" y1="97.82" x2="480.5" y2="97.82"   stroke="red" stroke-width="1" />
<line x1="480.5" y1="97.82" x2="458.36" y2="97.82"   stroke="red" stroke-width="1" />
<line x1="480.5" y1="97.82" x2="480.5" y2="164.25"   stroke="blue" stroke-width="1" />
<line x1="502.65" y1="97.82" x2="480.5" y2="75.68"   stroke="red" stroke-width="1" />
<line x1="450.35" y1="89.38" x2="458.36" y2="97.82"   stroke="red" stroke-width="1" />
<line x1="450.35" y1="89.38" x2="358.71" y2="131.04"   stroke="blue" stroke-width="1" />
<line x1="609.35" y1="123.99" x2="569.08" y2="164.25"   stroke="red" stroke-width="1" />
<line x1="609.35" y1="123.99" x2="511.35" y2="87.24"   stroke="blue" stroke-width="1" />
<line x1="657.66" y1="208.54" x2="630.41" y2="160.85"   stroke="red" stroke-width="1" />
<line x1="630.41" y1="160.85" x2="609.35" y2="123.99"   stroke="red" stroke-width="1" />
<line x1="645.85" y1="137.68" x2="630.41" y2="160.85"   stroke="red" stroke-width="1" />
<line x1="645.85" y1="137.68" x2="609.35" y2="123.99"   stroke="blue" stroke-width="1" />
<line x1="630.41" y1="160.85" x2="569.08" y2="164.25"   stroke="blue" stroke-width="1" />
<line x1="713.02" y1="197.47" x2="690.88" y2="175.33"   stroke="red" stroke-width="1" />
<line x1="690.88" y1="175.33" x2="657.66" y2="142.11"   stroke="red" stroke-width="1" />
<line x1="834.82" y1="75.68" x2="690.88" y2="175.33"   stroke="red" stroke-width="1" />
<line x1="834.82" y1="75.68" x2="657.66" y2="142.11"   stroke="blue" stroke-width="1" />
<line x1="609.35" y1="123.99" x2="662.47" y2="112.61"   stroke="blue" stroke-width="1" />
<line x1="662.47" y1="112.61" x2="645.85" y2="137.68"   stroke="blue" stroke-width="1" />
<line x1="662.47" y1="112.61" x2="834.82" y2="75.68"   stroke="blue" stroke-width="1" />
<line x1="662.47" y1="112.61" x2="613.37" y2="75.68"   stroke="red" stroke-width="1" />
<line x1="609.35" y1="123.99" x2="613.37" y2="75.68"   stroke="blue" stroke-width="1" />
<line x1="502.65" y1="75.68" x2="511.35" y2="87.24"   stroke="red" stroke-width="1" />
<line x1="511.35" y1="87.24" x2="480.5" y2="75.68"   stroke="blue" stroke-width="1" />
<line x1="126.19" y1="429.99" x2="170.48" y2="562.86"   stroke="red" stroke-width="1" />
<line x1="214.77" y1="518.57" x2="170.48" y2="562.86"   stroke="red" stroke-width="1" />
<line x1="170.48" y1="607.14" x2="170.48" y2="585.0"   stroke="red" stroke-width="1" />
<line x1="214.77" y1="607.14" x2="170.48" y2="607.14"   stroke="blue" stroke-width="1" />
<line x1="236.92" y1="585.0" x2="170.48" y2="585.0"   stroke="red" stroke-width="1" />
<line x1="236.92" y1="585.0" x2="259.06" y2="562.86"   stroke="blue" stroke-width="1" />
<line x1="170.48" y1="585.0" x2="170.48" y2="562.86"   stroke="red" stroke-width="1" />
<line x1="236.92" y1="607.14" x2="236.92" y2="585.0"   stroke="blue" stroke-width="1" />
<line x1="236.92" y1="607.14" x2="303.35" y2="607.14"   stroke="red" stroke-width="1" />
<line x1="236.92" y1="629.29" x2="236.92" y2="607.14"   stroke="red" stroke-width="1" />
<line x1="236.92" y1="629.29" x2="214.77" y2="607.14"   stroke="blue" stroke-width="1" />
<line x1="148.34" y1="629.29" x2="148.34" y2="585.0"   stroke="red" stroke-width="1" />
<line x1="236.92" y1="629.29" x2="148.34" y2="629.29"   stroke="blue" stroke-width="1" />
<line x1="170.48" y1="585.0" x2="148.34" y2="585.0"   stroke="blue" stroke-width="1" />
<line x1="170.48" y1="607.14" x2="148.34" y2="585.0"   stroke="blue" stroke-width="1" />
<line x1="148.34" y1="629.29" x2="170.48" y2="607.14"   stroke="blue" stroke-width="1" />
<line x1="126.19" y1="562.86" x2="148.34" y2="585.0"   stroke="blue" stroke-width="1" />
<line x1="126.19" y1="540.71" x2="170.48" y2="562.86"   stroke="blue" stroke-width="1" />
<line x1="126.19" y1="651.43" x2="148.34" y2="629.29"   stroke="blue" stroke-width="1" />
<line x1="148.34" y1="629.29" x2="126.19" y2="629.29"   stroke="red" stroke-width="1" />
<line x1="148.34" y1="695.72" x2="148.34" y2="680.96"   stroke="red" stroke-width="1" />
<line x1="148.34" y1="695.72" x2="148.34" y2="740.01"   stroke="red" stroke-width="1" />
<line x1="126.19" y1="740.01" x2="148.34" y2="740.01"   stroke="blue" stroke-width="1" />
<line x1="148.34" y1="740.01" x2="126.19" y2="695.72"   stroke="red" stroke-width="1" />
<line x1="192.63" y1="695.72" x2="148.34" y2="695.72"   stroke="blue" stroke-width="1" />
<line x1="148.34" y1="695.72" x2="126.19" y2="695.72"   stroke="blue" stroke-width="1" />
<line x1="126.19" y1="673.58" x2="148.34" y2="680.96"   stroke="red" stroke-width="1" />
<line x1="148.34" y1="680.96" x2="192.63" y2="695.72"   stroke="red" stroke-width="1" />
<line x1="303.35" y1="607.14" x2="391.93" y2="607.14"   stroke="red" stroke-width="1" />
<line x1="480.5" y1="607.14" x2="480.5" y2="695.72"   stroke="red" stroke-width="1" />
<line x1="391.93" y1="695.72" x2="347.64" y2="651.43"   stroke="red" stroke-width="1" />
<line x1="303.35" y1="695.72" x2="303.35" y2="673.58"   stroke="red" stroke-width="1" />
<line x1="569.08" y1="518.57" x2="480.5" y2="518.57"   stroke="red" stroke-width="1" />
<line x1="569.08" y1="518.57" x2="613.37" y2="562.86"   stroke="red" stroke-width="1" />
<line x1="569.08" y1="607.14" x2="657.66" y2="607.14"   stroke="red" stroke-width="1" />
<line x1="480.5" y1="429.99" x2="480.5" y2="518.57"   stroke="blue" stroke-width="1" />
<line x1="569.08" y1="518.57" x2="569.08" y2="607.14"   stroke="blue" stroke-width="1" />
<line x1="746.24" y1="429.99" x2="701.95" y2="474.28"   stroke="blue" stroke-width="1" />
<line x1="613.37" y1="562.86" x2="569.08" y2="607.14"   stroke="blue" stroke-width="1" />
<line x1="613.37" y1="562.86" x2="657.66" y2="607.14"   stroke="blue" stroke-width="1" />
<line x1="569.08" y1="607.14" x2="480.5" y2="695.72"   stroke="blue" stroke-width="1" />
<line x1="657.66" y1="341.41" x2="613.37" y2="385.7"   stroke="blue" stroke-width="1" />
<line x1="524.79" y1="474.28" x2="480.5" y2="518.57"   stroke="blue" stroke-width="1" />
<line x1="524.79" y1="474.28" x2="569.08" y2="518.57"   stroke="blue" stroke-width="1" />
<line x1="657.66" y1="341.41" x2="701.95" y2="385.7"   stroke="blue" stroke-width="1" />
<line x1="480.5" y1="518.57" x2="391.93" y2="607.14"   stroke="blue" stroke-width="1" />
<line x1="391.93" y1="607.14" x2="480.5" y2="607.14"   stroke="red" stroke-width="1" />
<line x1="347.64" y1="562.86" x2="391.93" y2="607.14"   stroke="blue" stroke-width="1" />
<line x1="347.64" y1="562.86" x2="303.35" y2="607.14"   stroke="red" stroke-width="1" />
<line x1="834.82" y1="429.99" x2="812.67" y2="429.99"   stroke="red" stroke-width="1" />
<line x1="746.24" y1="341.41" x2="701.95" y2="385.7"   stroke="blue" stroke-width="1" />
<line x1="701.95" y1="385.7" x2="746.24" y2="429.99"   stroke="blue" stroke-width="1" />
<line x1="701.95" y1="474.28" x2="746.24" y2="518.57"   stroke="red" stroke-width="1" />
<line x1="701.95" y1="474.28" x2="613.37" y2="562.86"   stroke="blue" stroke-width="1" />
<line x1="613.37" y1="385.7" x2="657.66" y2="429.99"   stroke="blue" stroke-width="1" />
<line x1="613.37" y1="385.7" x2="524.79" y2="474.28"   stroke="blue" stroke-width="1" />
<line x1="657.66" y1="429.99" x2="701.95" y2="474.28"   stroke="blue" stroke-width="1" />
<line x1="746.24" y1="518.57" x2="657.66" y2="607.14"   stroke="red" stroke-width="1" />
<line x1="569.08" y1="341.41" x2="657.66" y2="341.41"   stroke="blue" stroke-width="1" />
<line x1="657.66" y1="252.83" x2="657.66" y2="341.41"   stroke="blue" stroke-width="1" />
<line x1="391.93" y1="607.14" x2="436.22" y2="651.43"   stroke="blue" stroke-width="1" />
<line x1="480.5" y1="784.3" x2="657.66" y2="607.14"   stroke="blue" stroke-width="1" />
<line x1="391.93" y1="695.72" x2="480.5" y2="784.3"   stroke="blue" stroke-width="1" />
<line x1="480.5" y1="607.14" x2="436.22" y2="651.43"   stroke="blue" stroke-width="1" />
<line x1="436.22" y1="651.43" x2="391.93" y2="695.72"   stroke="red" stroke-width="1" />
<line x1="436.22" y1="651.43" x2="480.5" y2="695.72"   stroke="blue" stroke-width="1" />
<line x1="480.5" y1="695.72" x2="480.5" y2="784.3"   stroke="blue" stroke-width="1" />
<line x1="303.35" y1="695.72" x2="325.49" y2="673.58"   stroke="blue" stroke-width="1" />
<line x1="347.64" y1="651.43" x2="391.93" y2="607.14"   stroke="blue" stroke-width="1" />
<line x1="347.64" y1="651.43" x2="303.35" y2="607.14"   stroke="red" stroke-width="1" />
<line x1="657.66" y1="429.99" x2="569.08" y2="518.57"   stroke="red" stroke-width="1" />
<line x1="569.08" y1="518.57" x2="480.5" y2="607.14"   stroke="red" stroke-width="1" />
<line x1="657.66" y1="607.14" x2="657.66" y2="703.78"   stroke="red" stroke-width="1" />
<line x1="724.09" y1="673.58" x2="657.66" y2="703.78"   stroke="blue" stroke-width="1" />
<line x1="657.66" y1="703.78" x2="480.5" y2="784.3"   stroke="red" stroke-width="1" />
<line x1="834.82" y1="673.58" x2="724.09" y2="673.58"   stroke="red" stroke-width="1" />
<line x1="834.82" y1="784.3" x2="724.09" y2="673.58"   stroke="blue" stroke-width="1" />
<line x1="724.09" y1="673.58" x2="724.09" y2="784.3"   stroke="blue" stroke-width="1" />
<line x1="724.09" y1="784.3" x2="657.66" y2="703.78"   stroke="red" stroke-width="1" />
<line x1="768.38" y1="784.3" x2="724.09" y2="673.58"   stroke="red" stroke-width="1" />
<line x1="724.09" y1="673.58" x2="834.82" y2="717.87"   stroke="blue" stroke-width="1" />
<line x1="834.82" y1="551.88" x2="834.82" y2="551.78"   stroke="black" stroke-width="1" />
<line x1="812.67" y1="429.99" x2="746.24" y2="429.99"   stroke="blue" stroke-width="1" />
<line x1="701.95" y1="252.83" x2="768.38" y2="252.83"   stroke="blue" stroke-width="1" />
<line x1="786.5" y1="301.15" x2="746.24" y2="341.41"   stroke="red" stroke-width="1" />
<line x1="786.5" y1="301.15" x2="823.25" y2="399.15"   stroke="blue" stroke-width="1" />
<line x1="701.95" y1="252.83" x2="749.65" y2="280.09"   stroke="red" stroke-width="1" />
<line x1="749.65" y1="280.09" x2="786.5" y2="301.15"   stroke="red" stroke-width="1" />
<line x1="772.81" y1="264.64" x2="749.65" y2="280.09"   stroke="red" stroke-width="1" />
<line x1="772.81" y1="264.64" x2="786.5" y2="301.15"   stroke="blue" stroke-width="1" />
<line x1="749.65" y1="280.09" x2="746.24" y2="341.41"   stroke="blue" stroke-width="1" />
<line x1="713.02" y1="197.47" x2="735.17" y2="219.62"   stroke="red" stroke-width="1" />
<line x1="735.17" y1="219.62" x2="768.38" y2="252.83"   stroke="red" stroke-width="1" />
<line x1="735.17" y1="219.62" x2="701.95" y2="252.83"   stroke="blue" stroke-width="1" />
<line x1="834.82" y1="75.68" x2="735.17" y2="219.62"   stroke="red" stroke-width="1" />
<line x1="834.82" y1="75.68" x2="768.38" y2="252.83"   stroke="blue" stroke-width="1" />
<line x1="786.5" y1="301.15" x2="797.89" y2="248.02"   stroke="blue" stroke-width="1" />
<line x1="797.89" y1="248.02" x2="772.81" y2="264.64"   stroke="blue" stroke-width="1" />
<line x1="797.89" y1="248.02" x2="834.82" y2="75.68"   stroke="blue" stroke-width="1" />
<line x1="797.89" y1="248.02" x2="834.82" y2="297.12"   stroke="red" stroke-width="1" />
<line x1="786.5" y1="301.15" x2="834.82" y2="297.12"   stroke="blue" stroke-width="1" />
<line x1="823.25" y1="399.15" x2="834.82" y2="429.99"   stroke="blue" stroke-width="1" />
<line x1="480.5" y1="784.3" x2="347.64" y2="740.01"   stroke="red" stroke-width="1" />
<line x1="391.93" y1="695.72" x2="347.64" y2="740.01"   stroke="red" stroke-width="1" />
<line x1="303.35" y1="740.01" x2="325.49" y2="740.01"   stroke="red" stroke-width="1" />
<line x1="303.35" y1="695.72" x2="303.35" y2="740.01"   stroke="blue" stroke-width="1" />
<line x1="325.49" y1="673.58" x2="325.49" y2="740.01"   stroke="red" stroke-width="1" />
<line x1="325.49" y1="673.58" x2="347.64" y2="651.43"   stroke="blue" stroke-width="1" />
<line x1="325.49" y1="740.01" x2="347.64" y2="740.01"   stroke="red" stroke-width="1" />
<line x1="303.35" y1="673.58" x2="325.49" y2="673.58"   stroke="blue" stroke-width="1" />
<line x1="303.35" y1="673.58" x2="303.35" y2="607.14"   stroke="red" stroke-width="1" />
<line x1="281.2" y1="673.58" x2="303.35" y2="673.58"   stroke="red" stroke-width="1" />
<line x1="281.2" y1="673.58" x2="303.35" y2="695.72"   stroke="blue" stroke-width="1" />
<line x1="281.2" y1="762.16" x2="325.49" y2="762.16"   stroke="red" stroke-width="1" />
<line x1="281.2" y1="673.58" x2="281.2" y2="762.16"   stroke="blue" stroke-width="1" />
<line x1="325.49" y1="740.01" x2="325.49" y2="762.16"   stroke="blue" stroke-width="1" />
<line x1="303.35" y1="740.01" x2="325.49" y2="762.16"   stroke="blue" stroke-width="1" />
<line x1="281.2" y1="762.16" x2="303.35" y2="740.01"   stroke="blue" stroke-width="1" />
<line x1="347.64" y1="784.3" x2="325.49" y2="762.16"   stroke="blue" stroke-width="1" />
<line x1="369.78" y1="784.3" x2="347.64" y2="740.01"   stroke="blue" stroke-width="1" />
<line x1="369.78" y1="784.3" x2="347.64" y2="784.3"   stroke="black" stroke-width="1" />
<line x1="259.06" y1="784.3" x2="281.2" y2="762.16"   stroke="blue" stroke-width="1" />
<line x1="259.06" y1="784.3" x2="236.92" y2="784.3"   stroke="black" stroke-width="1" />
<line x1="281.2" y1="762.16" x2="281.2" y2="784.3"   stroke="red" stroke-width="1" />
<line x1="281.2" y1="784.3" x2="259.06" y2="784.3"   stroke="black" stroke-width="1" />
<line x1="214.77" y1="762.16" x2="229.53" y2="762.16"   stroke="red" stroke-width="1" />
<line x1="214.77" y1="762.16" x2="170.48" y2="762.16"   stroke="red" stroke-width="1" />
<line x1="170.48" y1="784.3" x2="170.48" y2="762.16"   stroke="blue" stroke-width="1" />
<line x1="170.48" y1="762.16" x2="214.77" y2="784.3"   stroke="red" stroke-width="1" />
<line x1="214.77" y1="717.87" x2="214.77" y2="762.16"   stroke="blue" stroke-width="1" />
<line x1="214.77" y1="762.16" x2="214.77" y2="784.3"   stroke="blue" stroke-width="1" />
<line x1="236.92" y1="784.3" x2="229.53" y2="762.16"   stroke="red" stroke-width="1" />
<line x1="236.92" y1="784.3" x2="214.77" y2="784.3"   stroke="black" stroke-width="1" />
<line x1="229.53" y1="762.16" x2="214.77" y2="717.87"   stroke="red" stroke-width="1" />
<line x1="281.2" y1="673.58" x2="236.92" y2="629.29"   stroke="blue" stroke-width="1" />
<line x1="480.5" y1="429.99" x2="347.64" y2="562.86"   stroke="red" stroke-width="1" />
<line x1="569.08" y1="341.41" x2="480.5" y2="429.99"   stroke="red" stroke-width="1" />
<line x1="524.79" y1="474.28" x2="480.5" y2="429.99"   stroke="red" stroke-width="1" />
<line x1="480.5" y1="429.99" x2="436.22" y2="385.7"   stroke="red" stroke-width="1" />
<line x1="569.08" y1="341.41" x2="524.79" y2="297.12"   stroke="red" stroke-width="1" />
<line x1="613.37" y1="385.7" x2="569.08" y2="341.41"   stroke="red" stroke-width="1" />
<line x1="657.66" y1="252.83" x2="569.08" y2="341.41"   stroke="red" stroke-width="1" />
<line x1="657.66" y1="252.83" x2="569.08" y2="164.25"   stroke="red" stroke-width="1" />
<line x1="746.24" y1="341.41" x2="657.66" y2="252.83"   stroke="red" stroke-width="1" />
<line x1="746.24" y1="341.41" x2="657.66" y2="341.41"   stroke="red" stroke-width="1" />
<line x1="657.66" y1="429.99" x2="657.66" y2="341.41"   stroke="red" stroke-width="1" />
<line x1="701.95" y1="385.7" x2="657.66" y2="429.99"   stroke="red" stroke-width="1" />
<line x1="746.24" y1="429.99" x2="657.66" y2="429.99"   stroke="red" stroke-width="1" />
<line x1="812.67" y1="407.84" x2="746.24" y2="341.41"   stroke="red" stroke-width="1" />
<line x1="812.67" y1="429.99" x2="812.67" y2="407.84"   stroke="red" stroke-width="1" />
<line x1="834.82" y1="429.99" x2="812.67" y2="407.84"   stroke="red" stroke-width="1" />
<line x1="834.82" y1="407.84" x2="823.25" y2="399.15"   stroke="red" stroke-width="1" />
<line x1="823.25" y1="399.15" x2="812.67" y2="407.84"   stroke="red" stroke-width="1" />
<line x1="812.67" y1="452.13" x2="812.67" y2="429.99"   stroke="red" stroke-width="1" />
<line x1="834.82" y1="429.99" x2="812.67" y2="452.13"   stroke="red" stroke-width="1" />
<line x1="821.11" y1="460.15" x2="812.67" y2="452.13"   stroke="red" stroke-width="1" />
<line x1="834.82" y1="452.13" x2="821.11" y2="460.15"   stroke="red" stroke-width="1" />
<line x1="812.67" y1="452.13" x2="746.24" y2="518.57"   stroke="red" stroke-width="1" />
<line x1="779.46" y1="551.78" x2="746.24" y2="518.57"   stroke="blue" stroke-width="1" />
<line x1="821.11" y1="460.15" x2="779.46" y2="551.78"   stroke="blue" stroke-width="1" />
<line x1="834.82" y1="551.78" x2="779.46" y2="551.78"   stroke="red" stroke-width="1" />
<line x1="358.71" y1="131.04" x2="358.61" y2="75.68"   stroke="red" stroke-width="1" />
<line x1="458.36" y1="75.68" x2="450.35" y2="89.38"   stroke="red" stroke-width="1" />
<line x1="511.35" y1="87.24" x2="502.65" y2="97.82"   stroke="red" stroke-width="1" />
<line x1="126.19" y1="429.99" x2="126.19" y2="186.4"   stroke="black" stroke-width="1" />
<line x1="126.19" y1="540.71" x2="126.19" y2="429.99"   stroke="black" stroke-width="1" />
<line x1="126.19" y1="562.86" x2="126.19" y2="540.71"   stroke="black" stroke-width="1" />
<line x1="126.19" y1="629.29" x2="126.19" y2="562.86"   stroke="black" stroke-width="1" />
<line x1="126.19" y1="651.43" x2="126.19" y2="629.29"   stroke="black" stroke-width="1" />
<line x1="126.19" y1="673.58" x2="126.19" y2="651.43"   stroke="black" stroke-width="1" />
<line x1="126.19" y1="695.72" x2="126.19" y2="673.58"   stroke="black" stroke-width="1" />
<line x1="126.19" y1="740.01" x2="126.19" y2="695.72"   stroke="black" stroke-width="1" />
<line x1="126.19" y1="762.16" x2="126.19" y2="740.01"   stroke="black" stroke-width="1" />
<line x1="126.19" y1="784.3" x2="126.19" y2="762.16"   stroke="black" stroke-width="1" />
<line x1="148.34" y1="784.3" x2="126.19" y2="784.3"   stroke="black" stroke-width="1" />
<line x1="170.48" y1="784.3" x2="148.34" y2="784.3"   stroke="black" stroke-width="1" />
<line x1="214.77" y1="784.3" x2="170.48" y2="784.3"   stroke="black" stroke-width="1" />
<line x1="347.64" y1="784.3" x2="281.2" y2="784.3"   stroke="black" stroke-width="1" />
<line x1="480.5" y1="784.3" x2="369.78" y2="784.3"   stroke="black" stroke-width="1" />
<line x1="724.09" y1="784.3" x2="480.5" y2="784.3"   stroke="black" stroke-width="1" />
<line x1="768.38" y1="784.3" x2="724.09" y2="784.3"   stroke="black" stroke-width="1" />
<line x1="834.82" y1="784.3" x2="768.38" y2="784.3"   stroke="black" stroke-width="1" />
<line x1="834.82" y1="784.3" x2="834.82" y2="717.87"   stroke="black" stroke-width="1" />
<line x1="834.82" y1="717.87" x2="834.82" y2="673.58"   stroke="black" stroke-width="1" />
<line x1="834.82" y1="673.58" x2="834.82" y2="551.78"   stroke="black" stroke-width="1" />
<line x1="834.82" y1="452.13" x2="834.82" y2="551.78"   stroke="black" stroke-width="1" />
<line x1="834.82" y1="429.99" x2="834.82" y2="452.13"   stroke="black" stroke-width="1" />
<line x1="834.82" y1="407.84" x2="834.82" y2="429.99"   stroke="black" stroke-width="1" />
<line x1="834.82" y1="297.12" x2="834.82" y2="407.84"   stroke="black" stroke-width="1" />
<line x1="834.82" y1="297.12" x2="834.82" y2="75.68"   stroke="black" stroke-width="1" />
<line x1="834.82" y1="75.68" x2="613.37" y2="75.68"   stroke="black" stroke-width="1" />
<line x1="613.37" y1="75.68" x2="502.65" y2="75.68"   stroke="black" stroke-width="1" />
<line x1="502.65" y1="75.68" x2="480.5" y2="75.68"   stroke="black" stroke-width="1" />
<line x1="480.5" y1="75.68" x2="458.36" y2="75.68"   stroke="black" stroke-width="1" />
<line x1="358.61" y1="75.68" x2="236.92" y2="75.68"   stroke="black" stroke-width="1" />
<line x1="236.92" y1="75.68" x2="192.63" y2="75.68"   stroke="black" stroke-width="1" />
<line x1="192.63" y1="75.68" x2="126.19" y2="75.68"   stroke="black" stroke-width="1" />
<line x1="126.19" y1="142.11" x2="126.19" y2="75.68"   stroke="black" stroke-width="1" />
<line x1="126.19" y1="186.4" x2="126.19" y2="142.11"   stroke="black" stroke-width="1" />
<line x1="480.5" y1="75.68" x2="450.35" y2="89.38"   stroke="blue" stroke-width="1" />
<line x1="148.34" y1="629.29" x2="148.34" y2="680.96"   stroke="blue" stroke-width="1" />
<line x1="148.34" y1="784.3" x2="126.19" y2="762.16"   stroke="blue" stroke-width="1" />
<line x1="281.2" y1="762.16" x2="229.53" y2="762.16"   stroke="blue" stroke-width="1" />
<line x1="834.82" y1="429.99" x2="821.11" y2="460.15"   stroke="blue" stroke-width="1" />
<line x1="713.02" y1="197.47" x2="657.66" y2="252.83"   stroke="blue" stroke-width="1" />
<line x1="657.66" y1="252.83" x2="657.66" y2="208.54"   stroke="blue" stroke-width="1" />
<line x1="690.88" y1="175.33" x2="657.66" y2="208.54"   stroke="blue" stroke-width="1" />
<line x1="657.66" y1="142.11" x2="657.66" y2="208.54"   stroke="blue" stroke-width="1" />
<line x1="358.71" y1="131.04" x2="236.92" y2="186.4"   stroke="blue" stroke-width="1" />
<line x1="657.66" y1="142.11" x2="645.85" y2="137.68"   stroke="blue" stroke-width="1" />
<line x1="148.34" y1="740.01" x2="170.48" y2="762.16"   stroke="red" stroke-width="1" />
<line x1="834.82" y1="75.68" x2="713.02" y2="197.47"   stroke="red" stroke-width="1" />
<line x1="779.46" y1="551.78" x2="724.09" y2="673.58"   stroke="blue" stroke-width="1" />
<line x1="701.95" y1="252.83" x2="657.66" y2="252.83"   stroke="blue" stroke-width="1" />
<line x1="768.38" y1="252.83" x2="772.81" y2="264.64"   stroke="blue" stroke-width="1" />
<line x1="458.36" y1="75.68" x2="358.61" y2="75.68"   stroke="black" stroke-width="1" />
<line x1="724.09" y1="673.58" x2="657.66" y2="607.14"   stroke="red" stroke-width="1" />
<line x1="303.35" y1="252.83" x2="236.92" y2="186.4"   stroke="red" stroke-width="1" />
</g>
<g id="text">
<text style="font-family:sans-serif,Arial,Segoe UI;font-size:12px;" x="-3485.4" y="-2361.2" fill="black"><tspan x="-3485.4" y="-2361.2" fill="black"></tspan></text>
</g>
</svg>
