<svg xmlns="http://www.w3.org/2000/svg" xmlns:xlink="http://www.w3.org/1999/xlink">
<g id="crease-pattern">
<line x1="413.15" y1="94.05" x2="422.3" y2="94.05"   stroke="black" stroke-width="1" />
<line x1="559.56" y1="240.46" x2="486.35" y2="313.66"   stroke="red" stroke-width="1" />
<line x1="413.15" y1="94.05" x2="404.0" y2="103.2"   stroke="red" stroke-width="1" />
<line x1="120.33" y1="386.87" x2="120.33" y2="478.37"   stroke="black" stroke-width="1" />
<line x1="266.74" y1="313.66" x2="266.74" y2="240.46"   stroke="red" stroke-width="1" />
<line x1="339.94" y1="386.87" x2="339.94" y2="313.66"   stroke="red" stroke-width="1" />
<line x1="266.74" y1="460.07" x2="266.74" y2="533.28"   stroke="red" stroke-width="1" />
<line x1="339.94" y1="533.28" x2="266.74" y2="533.28"   stroke="red" stroke-width="1" />
<line x1="266.74" y1="606.48" x2="266.74" y2="588.18"   stroke="red" stroke-width="1" />
<line x1="193.53" y1="533.28" x2="211.84" y2="533.28"   stroke="red" stroke-width="1" />
<line x1="266.74" y1="460.07" x2="230.14" y2="496.68"   stroke="blue" stroke-width="1" />
<line x1="339.94" y1="533.28" x2="303.34" y2="569.88"   stroke="blue" stroke-width="1" />
<line x1="230.14" y1="496.68" x2="266.74" y2="533.28"   stroke="red" stroke-width="1" />
<line x1="230.14" y1="496.68" x2="211.84" y2="514.98"   stroke="blue" stroke-width="1" />
<line x1="303.34" y1="569.88" x2="266.74" y2="533.28"   stroke="red" stroke-width="1" />
<line x1="303.34" y1="569.88" x2="285.04" y2="588.18"   stroke="blue" stroke-width="1" />
<line x1="339.94" y1="533.28" x2="303.34" y2="496.68"   stroke="blue" stroke-width="1" />
<line x1="303.34" y1="496.68" x2="266.74" y2="460.07"   stroke="blue" stroke-width="1" />
<line x1="303.34" y1="496.68" x2="266.74" y2="533.28"   stroke="red" stroke-width="1" />
<line x1="266.74" y1="606.48" x2="248.44" y2="588.18"   stroke="blue" stroke-width="1" />
<line x1="339.94" y1="313.66" x2="266.74" y2="313.66"   stroke="blue" stroke-width="1" />
<line x1="413.15" y1="386.87" x2="339.94" y2="386.87"   stroke="blue" stroke-width="1" />
<line x1="413.15" y1="386.87" x2="303.34" y2="496.68"   stroke="red" stroke-width="1" />
<line x1="413.15" y1="460.07" x2="413.15" y2="386.87"   stroke="blue" stroke-width="1" />
<line x1="486.35" y1="460.07" x2="413.15" y2="460.07"   stroke="red" stroke-width="1" />
<line x1="486.35" y1="533.28" x2="486.35" y2="460.07"   stroke="blue" stroke-width="1" />
<line x1="559.56" y1="533.28" x2="486.35" y2="533.28"   stroke="red" stroke-width="1" />
<line x1="705.97" y1="386.87" x2="696.82" y2="396.02"   stroke="red" stroke-width="1" />
<line x1="705.97" y1="386.87" x2="705.97" y2="377.72"   stroke="black" stroke-width="1" />
<line x1="559.56" y1="240.46" x2="486.35" y2="167.25"   stroke="red" stroke-width="1" />
<line x1="705.97" y1="386.87" x2="696.82" y2="377.72"   stroke="red" stroke-width="1" />
<line x1="559.56" y1="313.66" x2="632.76" y2="313.66"   stroke="red" stroke-width="1" />
<line x1="632.76" y1="313.66" x2="559.56" y2="240.46"   stroke="red" stroke-width="1" />
<line x1="486.35" y1="240.46" x2="486.35" y2="167.25"   stroke="red" stroke-width="1" />
<line x1="486.35" y1="167.25" x2="422.3" y2="103.2"   stroke="red" stroke-width="1" />
<line x1="486.35" y1="313.66" x2="486.35" y2="240.46"   stroke="blue" stroke-width="1" />
<line x1="486.35" y1="313.66" x2="413.15" y2="386.87"   stroke="red" stroke-width="1" />
<line x1="559.56" y1="240.46" x2="486.35" y2="240.46"   stroke="blue" stroke-width="1" />
<line x1="559.56" y1="313.66" x2="559.56" y2="240.46"   stroke="blue" stroke-width="1" />
<line x1="486.35" y1="313.66" x2="559.56" y2="313.66"   stroke="blue" stroke-width="1" />
<line x1="632.76" y1="386.87" x2="596.16" y2="350.27"   stroke="blue" stroke-width="1" />
<line x1="596.16" y1="350.27" x2="632.76" y2="313.66"   stroke="blue" stroke-width="1" />
<line x1="596.16" y1="350.27" x2="559.56" y2="313.66"   stroke="blue" stroke-width="1" />
<line x1="486.35" y1="240.46" x2="449.75" y2="203.86"   stroke="blue" stroke-width="1" />
<line x1="449.75" y1="203.86" x2="486.35" y2="167.25"   stroke="blue" stroke-width="1" />
<line x1="449.75" y1="203.86" x2="413.15" y2="167.25"   stroke="blue" stroke-width="1" />
<line x1="413.15" y1="240.46" x2="449.75" y2="203.86"   stroke="red" stroke-width="1" />
<line x1="596.16" y1="350.27" x2="559.56" y2="386.87"   stroke="red" stroke-width="1" />
<line x1="559.56" y1="386.87" x2="559.56" y2="313.66"   stroke="red" stroke-width="1" />
<line x1="632.76" y1="386.87" x2="559.56" y2="386.87"   stroke="red" stroke-width="1" />
<line x1="486.35" y1="240.46" x2="413.15" y2="240.46"   stroke="red" stroke-width="1" />
<line x1="413.15" y1="240.46" x2="413.15" y2="167.25"   stroke="red" stroke-width="1" />
<line x1="339.94" y1="313.66" x2="413.15" y2="240.46"   stroke="red" stroke-width="1" />
<line x1="486.35" y1="460.07" x2="559.56" y2="386.87"   stroke="red" stroke-width="1" />
<line x1="413.15" y1="167.25" x2="413.15" y2="103.2"   stroke="blue" stroke-width="1" />
<line x1="705.97" y1="386.87" x2="696.82" y2="386.87"   stroke="blue" stroke-width="1" />
<line x1="413.15" y1="240.46" x2="376.55" y2="203.86"   stroke="blue" stroke-width="1" />
<line x1="339.94" y1="167.25" x2="266.74" y2="240.46"   stroke="red" stroke-width="1" />
<line x1="376.55" y1="203.86" x2="413.15" y2="167.25"   stroke="blue" stroke-width="1" />
<line x1="449.75" y1="277.06" x2="413.15" y2="240.46"   stroke="blue" stroke-width="1" />
<line x1="449.75" y1="277.06" x2="486.35" y2="240.46"   stroke="blue" stroke-width="1" />
<line x1="522.96" y1="350.27" x2="559.56" y2="386.87"   stroke="blue" stroke-width="1" />
<line x1="522.96" y1="350.27" x2="559.56" y2="313.66"   stroke="blue" stroke-width="1" />
<line x1="559.56" y1="386.87" x2="596.16" y2="423.47"   stroke="blue" stroke-width="1" />
<line x1="632.76" y1="460.07" x2="559.56" y2="533.28"   stroke="red" stroke-width="1" />
<line x1="596.16" y1="423.47" x2="632.76" y2="386.87"   stroke="blue" stroke-width="1" />
<line x1="632.76" y1="460.07" x2="596.16" y2="423.47"   stroke="red" stroke-width="1" />
<line x1="486.35" y1="313.66" x2="522.96" y2="350.27"   stroke="red" stroke-width="1" />
<line x1="449.75" y1="277.06" x2="486.35" y2="313.66"   stroke="red" stroke-width="1" />
<line x1="339.94" y1="167.25" x2="376.55" y2="203.86"   stroke="red" stroke-width="1" />
<line x1="522.96" y1="496.68" x2="559.56" y2="533.28"   stroke="blue" stroke-width="1" />
<line x1="522.96" y1="496.68" x2="486.35" y2="533.28"   stroke="blue" stroke-width="1" />
<line x1="303.34" y1="277.06" x2="266.74" y2="240.46"   stroke="blue" stroke-width="1" />
<line x1="303.34" y1="277.06" x2="266.74" y2="313.66"   stroke="blue" stroke-width="1" />
<line x1="339.94" y1="313.66" x2="303.34" y2="277.06"   stroke="red" stroke-width="1" />
<line x1="522.96" y1="496.68" x2="486.35" y2="460.07"   stroke="red" stroke-width="1" />
<line x1="413.15" y1="386.87" x2="376.55" y2="350.27"   stroke="red" stroke-width="1" />
<line x1="449.75" y1="423.47" x2="413.15" y2="460.07"   stroke="blue" stroke-width="1" />
<line x1="449.75" y1="423.47" x2="413.15" y2="386.87"   stroke="red" stroke-width="1" />
<line x1="376.55" y1="350.27" x2="339.94" y2="386.87"   stroke="blue" stroke-width="1" />
<line x1="486.35" y1="460.07" x2="449.75" y2="423.47"   stroke="blue" stroke-width="1" />
<line x1="376.55" y1="350.27" x2="339.94" y2="313.66"   stroke="blue" stroke-width="1" />
<line x1="339.94" y1="386.87" x2="266.74" y2="460.07"   stroke="blue" stroke-width="1" />
<line x1="413.15" y1="460.07" x2="339.94" y2="533.28"   stroke="blue" stroke-width="1" />
<line x1="413.15" y1="606.48" x2="376.55" y2="569.88"   stroke="blue" stroke-width="1" />
<line x1="486.35" y1="533.28" x2="413.15" y2="606.48"   stroke="blue" stroke-width="1" />
<line x1="193.53" y1="386.87" x2="230.14" y2="423.47"   stroke="blue" stroke-width="1" />
<line x1="266.74" y1="313.66" x2="193.53" y2="386.87"   stroke="blue" stroke-width="1" />
<line x1="339.94" y1="313.66" x2="266.74" y2="386.87"   stroke="red" stroke-width="1" />
<line x1="230.14" y1="423.47" x2="193.53" y2="460.07"   stroke="red" stroke-width="1" />
<line x1="230.14" y1="423.47" x2="266.74" y2="460.07"   stroke="blue" stroke-width="1" />
<line x1="266.74" y1="460.07" x2="266.74" y2="386.87"   stroke="red" stroke-width="1" />
<line x1="266.74" y1="386.87" x2="193.53" y2="386.87"   stroke="red" stroke-width="1" />
<line x1="266.74" y1="386.87" x2="230.14" y2="423.47"   stroke="blue" stroke-width="1" />
<line x1="413.15" y1="533.28" x2="339.94" y2="533.28"   stroke="red" stroke-width="1" />
<line x1="413.15" y1="606.48" x2="413.15" y2="533.28"   stroke="red" stroke-width="1" />
<line x1="486.35" y1="460.07" x2="413.15" y2="533.28"   stroke="red" stroke-width="1" />
<line x1="376.55" y1="569.88" x2="339.94" y2="606.48"   stroke="red" stroke-width="1" />
<line x1="376.55" y1="569.88" x2="339.94" y2="533.28"   stroke="blue" stroke-width="1" />
<line x1="413.15" y1="533.28" x2="376.55" y2="569.88"   stroke="blue" stroke-width="1" />
<line x1="230.14" y1="496.68" x2="193.53" y2="460.07"   stroke="red" stroke-width="1" />
<line x1="339.94" y1="606.48" x2="303.34" y2="569.88"   stroke="red" stroke-width="1" />
<line x1="413.15" y1="679.69" x2="413.15" y2="606.48"   stroke="blue" stroke-width="1" />
<line x1="413.15" y1="679.69" x2="321.64" y2="679.69"   stroke="black" stroke-width="1" />
<line x1="120.33" y1="386.87" x2="193.53" y2="386.87"   stroke="blue" stroke-width="1" />
<line x1="193.53" y1="460.07" x2="120.33" y2="386.87"   stroke="blue" stroke-width="1" />
<line x1="413.15" y1="679.69" x2="339.94" y2="606.48"   stroke="blue" stroke-width="1" />
<line x1="266.74" y1="240.46" x2="120.33" y2="386.87"   stroke="blue" stroke-width="1" />
<line x1="559.56" y1="533.28" x2="413.15" y2="679.69"   stroke="blue" stroke-width="1" />
<line x1="339.94" y1="606.48" x2="303.34" y2="643.09"   stroke="red" stroke-width="1" />
<line x1="413.15" y1="679.69" x2="303.34" y2="643.09"   stroke="red" stroke-width="1" />
<line x1="193.53" y1="460.07" x2="156.93" y2="496.68"   stroke="red" stroke-width="1" />
<line x1="120.33" y1="386.87" x2="156.93" y2="496.68"   stroke="red" stroke-width="1" />
<line x1="705.97" y1="94.05" x2="605.31" y2="194.7"   stroke="red" stroke-width="1" />
<line x1="614.46" y1="588.18" x2="559.56" y2="533.28"   stroke="red" stroke-width="1" />
<line x1="559.56" y1="613.14" x2="559.56" y2="533.28"   stroke="red" stroke-width="1" />
<line x1="559.56" y1="613.14" x2="413.15" y2="679.69"   stroke="red" stroke-width="1" />
<line x1="614.46" y1="679.69" x2="559.56" y2="613.14"   stroke="red" stroke-width="1" />
<line x1="614.46" y1="679.69" x2="413.15" y2="679.69"   stroke="black" stroke-width="1" />
<line x1="614.46" y1="588.18" x2="559.56" y2="613.14"   stroke="blue" stroke-width="1" />
<line x1="614.46" y1="679.69" x2="614.46" y2="588.18"   stroke="blue" stroke-width="1" />
<line x1="705.97" y1="386.87" x2="700.59" y2="398.71"   stroke="blue" stroke-width="1" />
<line x1="660.22" y1="487.52" x2="614.46" y2="588.18"   stroke="blue" stroke-width="1" />
<line x1="705.97" y1="487.52" x2="705.97" y2="396.02"   stroke="black" stroke-width="1" />
<line x1="705.97" y1="487.52" x2="660.22" y2="487.52"   stroke="red" stroke-width="1" />
<line x1="660.22" y1="487.52" x2="632.76" y2="460.07"   stroke="blue" stroke-width="1" />
<line x1="705.97" y1="588.18" x2="614.46" y2="588.18"   stroke="red" stroke-width="1" />
<line x1="321.64" y1="679.69" x2="303.34" y2="643.09"   stroke="blue" stroke-width="1" />
<line x1="321.64" y1="679.69" x2="303.34" y2="679.69"   stroke="black" stroke-width="1" />
<line x1="303.34" y1="679.69" x2="285.04" y2="661.39"   stroke="blue" stroke-width="1" />
<line x1="303.34" y1="679.69" x2="248.44" y2="679.69"   stroke="black" stroke-width="1" />
<line x1="266.74" y1="643.09" x2="266.74" y2="606.48"   stroke="blue" stroke-width="1" />
<line x1="303.34" y1="643.09" x2="285.04" y2="643.09"   stroke="red" stroke-width="1" />
<line x1="248.44" y1="661.39" x2="285.04" y2="661.39"   stroke="red" stroke-width="1" />
<line x1="285.04" y1="661.39" x2="266.74" y2="643.09"   stroke="blue" stroke-width="1" />
<line x1="285.04" y1="588.18" x2="285.04" y2="643.09"   stroke="red" stroke-width="1" />
<line x1="285.04" y1="588.18" x2="266.74" y2="606.48"   stroke="blue" stroke-width="1" />
<line x1="285.04" y1="643.09" x2="266.74" y2="643.09"   stroke="red" stroke-width="1" />
<line x1="266.74" y1="588.18" x2="248.44" y2="588.18"   stroke="red" stroke-width="1" />
<line x1="266.74" y1="588.18" x2="266.74" y2="533.28"   stroke="red" stroke-width="1" />
<line x1="248.44" y1="588.18" x2="211.84" y2="551.58"   stroke="blue" stroke-width="1" />
<line x1="285.04" y1="588.18" x2="266.74" y2="588.18"   stroke="blue" stroke-width="1" />
<line x1="285.04" y1="643.09" x2="285.04" y2="661.39"   stroke="blue" stroke-width="1" />
<line x1="248.44" y1="661.39" x2="248.44" y2="588.18"   stroke="blue" stroke-width="1" />
<line x1="266.74" y1="643.09" x2="248.44" y2="661.39"   stroke="blue" stroke-width="1" />
<line x1="230.14" y1="679.69" x2="248.44" y2="661.39"   stroke="blue" stroke-width="1" />
<line x1="230.14" y1="679.69" x2="202.69" y2="679.69"   stroke="black" stroke-width="1" />
<line x1="248.44" y1="679.69" x2="248.44" y2="661.39"   stroke="red" stroke-width="1" />
<line x1="248.44" y1="679.69" x2="230.14" y2="679.69"   stroke="black" stroke-width="1" />
<line x1="184.38" y1="624.78" x2="196.58" y2="661.39"   stroke="red" stroke-width="1" />
<line x1="202.69" y1="679.69" x2="184.38" y2="679.69"   stroke="black" stroke-width="1" />
<line x1="184.38" y1="679.69" x2="184.38" y2="661.39"   stroke="blue" stroke-width="1" />
<line x1="184.38" y1="679.69" x2="147.78" y2="679.69"   stroke="black" stroke-width="1" />
<line x1="196.58" y1="661.39" x2="184.38" y2="661.39"   stroke="red" stroke-width="1" />
<line x1="196.58" y1="661.39" x2="202.69" y2="679.69"   stroke="red" stroke-width="1" />
<line x1="184.38" y1="661.39" x2="184.38" y2="624.78"   stroke="blue" stroke-width="1" />
<line x1="248.44" y1="661.39" x2="196.58" y2="661.39"   stroke="blue" stroke-width="1" />
<line x1="184.38" y1="661.39" x2="147.78" y2="661.39"   stroke="red" stroke-width="1" />
<line x1="184.38" y1="679.69" x2="147.78" y2="661.39"   stroke="red" stroke-width="1" />
<line x1="147.78" y1="679.69" x2="147.78" y2="661.39"   stroke="blue" stroke-width="1" />
<line x1="147.78" y1="679.69" x2="138.63" y2="679.69"   stroke="black" stroke-width="1" />
<line x1="138.63" y1="679.69" x2="120.33" y2="661.39"   stroke="blue" stroke-width="1" />
<line x1="120.33" y1="661.39" x2="120.33" y2="679.69"   stroke="black" stroke-width="1" />
<line x1="138.63" y1="679.69" x2="120.33" y2="679.69"   stroke="black" stroke-width="1" />
<line x1="138.63" y1="652.24" x2="120.33" y2="652.24"   stroke="blue" stroke-width="1" />
<line x1="120.33" y1="652.24" x2="120.33" y2="661.39"   stroke="black" stroke-width="1" />
<line x1="138.63" y1="615.63" x2="138.63" y2="652.24"   stroke="red" stroke-width="1" />
<line x1="120.33" y1="615.63" x2="138.63" y2="652.24"   stroke="red" stroke-width="1" />
<line x1="120.33" y1="615.63" x2="120.33" y2="652.24"   stroke="black" stroke-width="1" />
<line x1="175.23" y1="615.63" x2="138.63" y2="615.63"   stroke="blue" stroke-width="1" />
<line x1="138.63" y1="615.63" x2="120.33" y2="615.63"   stroke="blue" stroke-width="1" />
<line x1="120.33" y1="597.33" x2="138.63" y2="603.43"   stroke="red" stroke-width="1" />
<line x1="120.33" y1="597.33" x2="120.33" y2="615.63"   stroke="black" stroke-width="1" />
<line x1="138.63" y1="603.43" x2="138.63" y2="615.63"   stroke="red" stroke-width="1" />
<line x1="138.63" y1="603.43" x2="175.23" y2="615.63"   stroke="red" stroke-width="1" />
<line x1="211.84" y1="533.28" x2="211.84" y2="514.98"   stroke="blue" stroke-width="1" />
<line x1="211.84" y1="533.28" x2="266.74" y2="533.28"   stroke="red" stroke-width="1" />
<line x1="211.84" y1="551.58" x2="193.53" y2="533.28"   stroke="blue" stroke-width="1" />
<line x1="211.84" y1="514.98" x2="193.53" y2="533.28"   stroke="blue" stroke-width="1" />
<line x1="211.84" y1="551.58" x2="211.84" y2="533.28"   stroke="red" stroke-width="1" />
<line x1="156.93" y1="514.98" x2="211.84" y2="514.98"   stroke="red" stroke-width="1" />
<line x1="156.93" y1="514.98" x2="156.93" y2="496.68"   stroke="red" stroke-width="1" />
<line x1="138.63" y1="551.58" x2="211.84" y2="551.58"   stroke="blue" stroke-width="1" />
<line x1="156.93" y1="533.28" x2="138.63" y2="551.58"   stroke="blue" stroke-width="1" />
<line x1="138.63" y1="514.98" x2="156.93" y2="533.28"   stroke="blue" stroke-width="1" />
<line x1="156.93" y1="533.28" x2="156.93" y2="514.98"   stroke="blue" stroke-width="1" />
<line x1="193.53" y1="533.28" x2="156.93" y2="533.28"   stroke="blue" stroke-width="1" />
<line x1="138.63" y1="551.58" x2="138.63" y2="514.98"   stroke="red" stroke-width="1" />
<line x1="156.93" y1="514.98" x2="138.63" y2="514.98"   stroke="blue" stroke-width="1" />
<line x1="120.33" y1="496.68" x2="138.63" y2="514.98"   stroke="blue" stroke-width="1" />
<line x1="120.33" y1="496.68" x2="120.33" y2="551.58"   stroke="black" stroke-width="1" />
<line x1="156.93" y1="496.68" x2="120.33" y2="478.37"   stroke="blue" stroke-width="1" />
<line x1="120.33" y1="478.37" x2="120.33" y2="496.68"   stroke="black" stroke-width="1" />
<line x1="138.63" y1="603.43" x2="138.63" y2="551.58"   stroke="blue" stroke-width="1" />
<line x1="120.33" y1="569.88" x2="138.63" y2="551.58"   stroke="blue" stroke-width="1" />
<line x1="120.33" y1="569.88" x2="120.33" y2="597.33"   stroke="black" stroke-width="1" />
<line x1="120.33" y1="551.58" x2="138.63" y2="551.58"   stroke="red" stroke-width="1" />
<line x1="120.33" y1="551.58" x2="120.33" y2="569.88"   stroke="black" stroke-width="1" />
<line x1="211.84" y1="185.55" x2="266.74" y2="240.46"   stroke="red" stroke-width="1" />
<line x1="120.33" y1="386.87" x2="186.88" y2="240.46"   stroke="red" stroke-width="1" />
<line x1="120.33" y1="185.55" x2="120.33" y2="386.87"   stroke="black" stroke-width="1" />
<line x1="120.33" y1="185.55" x2="211.84" y2="185.55"   stroke="blue" stroke-width="1" />
<line x1="186.88" y1="240.46" x2="266.74" y2="240.46"   stroke="red" stroke-width="1" />
<line x1="120.33" y1="185.55" x2="186.88" y2="240.46"   stroke="red" stroke-width="1" />
<line x1="186.88" y1="240.46" x2="211.84" y2="185.55"   stroke="blue" stroke-width="1" />
<line x1="211.84" y1="94.05" x2="211.84" y2="185.55"   stroke="red" stroke-width="1" />
<line x1="413.15" y1="94.05" x2="401.31" y2="99.43"   stroke="blue" stroke-width="1" />
<line x1="312.49" y1="139.8" x2="339.94" y2="167.25"   stroke="blue" stroke-width="1" />
<line x1="312.49" y1="139.8" x2="211.84" y2="185.55"   stroke="blue" stroke-width="1" />
<line x1="312.49" y1="94.05" x2="312.49" y2="139.8"   stroke="red" stroke-width="1" />
<line x1="312.49" y1="94.05" x2="404.0" y2="94.05"   stroke="black" stroke-width="1" />
<line x1="559.56" y1="148.95" x2="559.56" y2="196.99"   stroke="blue" stroke-width="1" />
<line x1="413.15" y1="94.05" x2="424.41" y2="98.27"   stroke="blue" stroke-width="1" />
<line x1="705.97" y1="386.87" x2="701.75" y2="375.61"   stroke="blue" stroke-width="1" />
<line x1="519.63" y1="133.98" x2="486.35" y2="167.25"   stroke="red" stroke-width="1" />
<line x1="519.63" y1="133.98" x2="548.36" y2="144.75"   stroke="blue" stroke-width="1" />
<line x1="666.04" y1="280.39" x2="632.76" y2="313.66"   stroke="red" stroke-width="1" />
<line x1="666.04" y1="280.39" x2="655.27" y2="251.66"   stroke="blue" stroke-width="1" />
<line x1="605.31" y1="194.7" x2="583.58" y2="172.97"   stroke="red" stroke-width="1" />
<line x1="705.97" y1="94.05" x2="559.56" y2="148.95"   stroke="blue" stroke-width="1" />
<line x1="705.97" y1="94.05" x2="651.07" y2="240.46"   stroke="blue" stroke-width="1" />
<line x1="605.31" y1="194.7" x2="576.2" y2="223.82"   stroke="blue" stroke-width="1" />
<line x1="705.97" y1="94.05" x2="673.55" y2="245.34"   stroke="blue" stroke-width="1" />
<line x1="705.97" y1="94.05" x2="554.68" y2="126.47"   stroke="blue" stroke-width="1" />
<line x1="559.56" y1="197.4" x2="540.58" y2="167.25"   stroke="red" stroke-width="1" />
<line x1="576.2" y1="223.82" x2="559.56" y2="240.46"   stroke="blue" stroke-width="1" />
<line x1="540.58" y1="167.25" x2="486.35" y2="167.25"   stroke="blue" stroke-width="1" />
<line x1="540.58" y1="167.25" x2="519.63" y2="133.98"   stroke="red" stroke-width="1" />
<line x1="548.36" y1="144.75" x2="540.58" y2="167.25"   stroke="red" stroke-width="1" />
<line x1="548.36" y1="144.75" x2="559.56" y2="148.95"   stroke="blue" stroke-width="1" />
<line x1="554.68" y1="126.47" x2="519.63" y2="133.98"   stroke="blue" stroke-width="1" />
<line x1="554.68" y1="126.47" x2="548.36" y2="144.75"   stroke="blue" stroke-width="1" />
<line x1="522.96" y1="94.05" x2="519.63" y2="133.98"   stroke="blue" stroke-width="1" />
<line x1="522.96" y1="94.05" x2="705.97" y2="94.05"   stroke="black" stroke-width="1" />
<line x1="554.68" y1="126.47" x2="522.96" y2="94.05"   stroke="red" stroke-width="1" />
<line x1="666.04" y1="280.39" x2="632.76" y2="259.44"   stroke="red" stroke-width="1" />
<line x1="632.76" y1="259.44" x2="632.76" y2="313.66"   stroke="blue" stroke-width="1" />
<line x1="632.76" y1="259.44" x2="602.62" y2="240.46"   stroke="red" stroke-width="1" />
<line x1="655.27" y1="251.66" x2="632.76" y2="259.44"   stroke="red" stroke-width="1" />
<line x1="655.27" y1="251.66" x2="651.07" y2="240.46"   stroke="blue" stroke-width="1" />
<line x1="673.55" y1="245.34" x2="666.04" y2="280.39"   stroke="blue" stroke-width="1" />
<line x1="673.55" y1="245.34" x2="655.27" y2="251.66"   stroke="blue" stroke-width="1" />
<line x1="705.97" y1="277.06" x2="666.04" y2="280.39"   stroke="blue" stroke-width="1" />
<line x1="705.97" y1="277.06" x2="705.97" y2="94.05"   stroke="black" stroke-width="1" />
<line x1="705.97" y1="277.06" x2="673.55" y2="245.34"   stroke="red" stroke-width="1" />
<line x1="583.58" y1="172.97" x2="559.56" y2="148.95"   stroke="red" stroke-width="1" />
<line x1="627.01" y1="216.4" x2="605.31" y2="194.7"   stroke="red" stroke-width="1" />
<line x1="705.97" y1="94.05" x2="583.58" y2="172.97"   stroke="red" stroke-width="1" />
<line x1="705.97" y1="94.05" x2="627.01" y2="216.4"   stroke="red" stroke-width="1" />
<line x1="602.62" y1="240.46" x2="559.56" y2="240.46"   stroke="blue" stroke-width="1" />
<line x1="627.01" y1="216.4" x2="602.62" y2="240.46"   stroke="blue" stroke-width="1" />
<line x1="559.56" y1="240.46" x2="559.56" y2="197.4"   stroke="blue" stroke-width="1" />
<line x1="559.56" y1="197.4" x2="559.56" y2="196.99"   stroke="blue" stroke-width="1" />
<line x1="583.58" y1="172.97" x2="559.56" y2="197.4"   stroke="blue" stroke-width="1" />
<line x1="651.07" y1="240.46" x2="602.62" y2="240.46"   stroke="blue" stroke-width="1" />
<line x1="651.07" y1="240.46" x2="627.01" y2="216.4"   stroke="red" stroke-width="1" />
<line x1="401.31" y1="99.43" x2="404.0" y2="94.05"   stroke="red" stroke-width="1" />
<line x1="401.31" y1="99.43" x2="312.49" y2="139.8"   stroke="blue" stroke-width="1" />
<line x1="404.0" y1="94.05" x2="413.15" y2="94.05"   stroke="black" stroke-width="1" />
<line x1="422.3" y1="94.05" x2="522.96" y2="94.05"   stroke="black" stroke-width="1" />
<line x1="424.41" y1="98.27" x2="422.3" y2="94.05"   stroke="red" stroke-width="1" />
<line x1="424.41" y1="98.27" x2="519.63" y2="133.98"   stroke="blue" stroke-width="1" />
<line x1="404.0" y1="103.2" x2="401.31" y2="99.43"   stroke="red" stroke-width="1" />
<line x1="404.0" y1="103.2" x2="339.94" y2="167.25"   stroke="red" stroke-width="1" />
<line x1="422.3" y1="103.2" x2="424.41" y2="98.27"   stroke="red" stroke-width="1" />
<line x1="422.3" y1="103.2" x2="413.15" y2="94.05"   stroke="red" stroke-width="1" />
<line x1="422.3" y1="103.2" x2="413.15" y2="103.2"   stroke="red" stroke-width="1" />
<line x1="413.15" y1="103.2" x2="404.0" y2="103.2"   stroke="red" stroke-width="1" />
<line x1="413.15" y1="103.2" x2="413.15" y2="94.05"   stroke="blue" stroke-width="1" />
<line x1="705.97" y1="377.72" x2="705.97" y2="277.06"   stroke="black" stroke-width="1" />
<line x1="701.75" y1="375.61" x2="705.97" y2="377.72"   stroke="red" stroke-width="1" />
<line x1="701.75" y1="375.61" x2="666.04" y2="280.39"   stroke="blue" stroke-width="1" />
<line x1="700.59" y1="398.71" x2="705.97" y2="396.02"   stroke="red" stroke-width="1" />
<line x1="700.59" y1="398.71" x2="660.22" y2="487.52"   stroke="blue" stroke-width="1" />
<line x1="705.97" y1="396.02" x2="705.97" y2="386.87"   stroke="black" stroke-width="1" />
<line x1="696.82" y1="396.02" x2="700.59" y2="398.71"   stroke="red" stroke-width="1" />
<line x1="696.82" y1="396.02" x2="632.76" y2="460.07"   stroke="red" stroke-width="1" />
<line x1="696.82" y1="377.72" x2="696.82" y2="386.87"   stroke="red" stroke-width="1" />
<line x1="696.82" y1="377.72" x2="632.76" y2="313.66"   stroke="red" stroke-width="1" />
<line x1="696.82" y1="386.87" x2="696.82" y2="396.02"   stroke="red" stroke-width="1" />
<line x1="696.82" y1="386.87" x2="632.76" y2="386.87"   stroke="blue" stroke-width="1" />
<line x1="701.75" y1="375.61" x2="696.82" y2="377.72"   stroke="red" stroke-width="1" />
<line x1="651.07" y1="679.69" x2="614.46" y2="588.18"   stroke="red" stroke-width="1" />
<line x1="705.97" y1="624.78" x2="614.46" y2="588.18"   stroke="blue" stroke-width="1" />
<line x1="705.97" y1="679.69" x2="614.46" y2="588.18"   stroke="blue" stroke-width="1" />
<line x1="120.33" y1="94.05" x2="211.84" y2="185.55"   stroke="blue" stroke-width="1" />
<line x1="175.23" y1="94.05" x2="211.84" y2="185.55"   stroke="blue" stroke-width="1" />
<line x1="120.33" y1="148.95" x2="211.84" y2="185.55"   stroke="red" stroke-width="1" />
<line x1="705.97" y1="588.18" x2="705.97" y2="487.52"   stroke="black" stroke-width="1" />
<line x1="705.97" y1="624.78" x2="705.97" y2="588.18"   stroke="black" stroke-width="1" />
<line x1="705.97" y1="679.69" x2="705.97" y2="624.78"   stroke="black" stroke-width="1" />
<line x1="705.97" y1="679.69" x2="651.07" y2="679.69"   stroke="black" stroke-width="1" />
<line x1="651.07" y1="679.69" x2="614.46" y2="679.69"   stroke="black" stroke-width="1" />
<line x1="120.33" y1="185.55" x2="120.33" y2="148.95"   stroke="black" stroke-width="1" />
<line x1="120.33" y1="94.05" x2="120.33" y2="148.95"   stroke="black" stroke-width="1" />
<line x1="175.23" y1="94.05" x2="120.33" y2="94.05"   stroke="black" stroke-width="1" />
<line x1="211.84" y1="94.05" x2="175.23" y2="94.05"   stroke="black" stroke-width="1" />
<line x1="312.49" y1="94.05" x2="211.84" y2="94.05"   stroke="black" stroke-width="1" />
<line x1="376.55" y1="203.86" x2="303.34" y2="277.06"   stroke="blue" stroke-width="1" />
<line x1="522.96" y1="496.68" x2="596.16" y2="423.47"   stroke="blue" stroke-width="1" />
<line x1="449.75" y1="277.06" x2="376.55" y2="350.27"   stroke="blue" stroke-width="1" />
<line x1="522.96" y1="350.27" x2="449.75" y2="423.47"   stroke="blue" stroke-width="1" />
</g>
<g id="text">
</g>
</svg>
