<svg xmlns="http://www.w3.org/2000/svg" xmlns:xlink="http://www.w3.org/1999/xlink">
<g id="crease-pattern">
<line x1="254.39" y1="9.09" x2="254.39" y2="363.4"   stroke="black" stroke-width="1" />
<line x1="254.39" y1="9.09" x2="608.7" y2="9.09"   stroke="black" stroke-width="1" />
<line x1="963.01" y1="717.71" x2="608.7" y2="717.71"   stroke="black" stroke-width="1" />
<line x1="963.01" y1="717.71" x2="963.01" y2="363.4"   stroke="black" stroke-width="1" />
<line x1="963.01" y1="717.71" x2="608.7" y2="363.4"   stroke="red" stroke-width="1" />
<line x1="963.01" y1="9.09" x2="741.57" y2="230.53"   stroke="red" stroke-width="1" />
<line x1="608.7" y1="363.4" x2="475.83" y2="496.27"   stroke="red" stroke-width="1" />
<line x1="608.7" y1="363.4" x2="254.39" y2="9.09"   stroke="red" stroke-width="1" />
<line x1="608.7" y1="97.67" x2="608.7" y2="9.09"   stroke="red" stroke-width="1" />
<line x1="608.7" y1="9.09" x2="963.01" y2="9.09"   stroke="black" stroke-width="1" />
<line x1="608.7" y1="629.13" x2="608.7" y2="717.71"   stroke="red" stroke-width="1" />
<line x1="608.7" y1="717.71" x2="254.39" y2="717.71"   stroke="black" stroke-width="1" />
<line x1="342.97" y1="363.4" x2="254.39" y2="363.4"   stroke="red" stroke-width="1" />
<line x1="254.39" y1="363.4" x2="254.39" y2="717.71"   stroke="black" stroke-width="1" />
<line x1="874.43" y1="363.4" x2="963.01" y2="363.4"   stroke="red" stroke-width="1" />
<line x1="963.01" y1="363.4" x2="963.01" y2="9.09"   stroke="black" stroke-width="1" />
<line x1="874.43" y1="363.4" x2="608.7" y2="363.4"   stroke="blue" stroke-width="1" />
<line x1="608.7" y1="363.4" x2="342.97" y2="363.4"   stroke="blue" stroke-width="1" />
<line x1="342.97" y1="363.4" x2="254.39" y2="9.09"   stroke="blue" stroke-width="1" />
<line x1="254.39" y1="717.71" x2="342.97" y2="363.4"   stroke="blue" stroke-width="1" />
<line x1="608.7" y1="629.13" x2="254.39" y2="717.71"   stroke="blue" stroke-width="1" />
<line x1="963.01" y1="717.71" x2="608.7" y2="629.13"   stroke="blue" stroke-width="1" />
<line x1="874.43" y1="363.4" x2="963.01" y2="717.71"   stroke="blue" stroke-width="1" />
<line x1="963.01" y1="9.09" x2="874.43" y2="363.4"   stroke="blue" stroke-width="1" />
<line x1="608.7" y1="97.67" x2="608.7" y2="363.4"   stroke="blue" stroke-width="1" />
<line x1="608.7" y1="363.4" x2="608.7" y2="629.13"   stroke="blue" stroke-width="1" />
<line x1="963.01" y1="9.09" x2="608.7" y2="97.67"   stroke="blue" stroke-width="1" />
<line x1="254.39" y1="9.09" x2="608.7" y2="97.67"   stroke="blue" stroke-width="1" />
<line x1="608.7" y1="629.13" x2="475.83" y2="496.27"   stroke="red" stroke-width="1" />
<line x1="475.83" y1="496.27" x2="342.97" y2="363.4"   stroke="red" stroke-width="1" />
<line x1="475.83" y1="496.27" x2="254.39" y2="717.71"   stroke="red" stroke-width="1" />
<line x1="874.43" y1="363.4" x2="741.57" y2="230.53"   stroke="red" stroke-width="1" />
<line x1="741.57" y1="230.53" x2="608.7" y2="97.67"   stroke="red" stroke-width="1" />
<line x1="741.57" y1="230.53" x2="608.7" y2="363.4"   stroke="red" stroke-width="1" />
</g>
<g id="text">
</g>
</svg>
