<svg xmlns="http://www.w3.org/2000/svg" xmlns:xlink="http://www.w3.org/1999/xlink">
<g id="crease-pattern">
<line x1="41.85" y1="118.37" x2="41.85" y2="141.1"   stroke="black" stroke-width="1" />
<line x1="41.85" y1="118.37" x2="75.94" y2="118.37"   stroke="black" stroke-width="1" />
<line x1="223.67" y1="300.19" x2="200.94" y2="277.46"   stroke="red" stroke-width="1" />
<line x1="132.76" y1="391.1" x2="132.76" y2="345.64"   stroke="red" stroke-width="1" />
<line x1="132.76" y1="300.19" x2="87.3" y2="300.19"   stroke="red" stroke-width="1" />
<line x1="87.3" y1="345.64" x2="110.03" y2="368.37"   stroke="red" stroke-width="1" />
<line x1="87.3" y1="391.1" x2="98.67" y2="391.1"   stroke="red" stroke-width="1" />
<line x1="178.21" y1="254.73" x2="178.21" y2="300.19"   stroke="red" stroke-width="1" />
<line x1="178.21" y1="254.73" x2="155.48" y2="232.01"   stroke="red" stroke-width="1" />
<line x1="132.76" y1="254.73" x2="132.76" y2="209.28"   stroke="red" stroke-width="1" />
<line x1="223.67" y1="300.19" x2="178.21" y2="300.19"   stroke="blue" stroke-width="1" />
<line x1="178.21" y1="254.73" x2="132.76" y2="254.73"   stroke="blue" stroke-width="1" />
<line x1="223.67" y1="163.83" x2="200.94" y2="186.55"   stroke="blue" stroke-width="1" />
<line x1="155.48" y1="232.01" x2="132.76" y2="254.73"   stroke="blue" stroke-width="1" />
<line x1="155.48" y1="232.01" x2="132.76" y2="209.28"   stroke="blue" stroke-width="1" />
<line x1="132.76" y1="254.73" x2="87.3" y2="300.19"   stroke="blue" stroke-width="1" />
<line x1="269.12" y1="209.28" x2="246.39" y2="232.01"   stroke="blue" stroke-width="1" />
<line x1="200.94" y1="277.46" x2="178.21" y2="300.19"   stroke="blue" stroke-width="1" />
<line x1="200.94" y1="277.46" x2="178.21" y2="254.73"   stroke="blue" stroke-width="1" />
<line x1="269.12" y1="209.28" x2="246.39" y2="186.55"   stroke="blue" stroke-width="1" />
<line x1="178.21" y1="300.19" x2="132.76" y2="345.64"   stroke="blue" stroke-width="1" />
<line x1="132.76" y1="345.64" x2="132.76" y2="300.19"   stroke="red" stroke-width="1" />
<line x1="155.48" y1="368.37" x2="132.76" y2="345.64"   stroke="blue" stroke-width="1" />
<line x1="223.67" y1="209.28" x2="223.67" y2="163.83"   stroke="red" stroke-width="1" />
<line x1="269.12" y1="209.28" x2="223.67" y2="209.28"   stroke="red" stroke-width="1" />
<line x1="223.67" y1="118.37" x2="223.67" y2="129.73"   stroke="red" stroke-width="1" />
<line x1="223.67" y1="118.37" x2="235.03" y2="118.37"   stroke="black" stroke-width="1" />
<line x1="269.12" y1="163.83" x2="246.39" y2="186.55"   stroke="blue" stroke-width="1" />
<line x1="246.39" y1="186.55" x2="223.67" y2="209.28"   stroke="red" stroke-width="1" />
<line x1="246.39" y1="186.55" x2="223.67" y2="163.83"   stroke="blue" stroke-width="1" />
<line x1="269.12" y1="163.83" x2="269.12" y2="209.28"   stroke="red" stroke-width="1" />
<line x1="314.58" y1="209.28" x2="269.12" y2="163.83"   stroke="red" stroke-width="1" />
<line x1="269.12" y1="254.73" x2="246.39" y2="232.01"   stroke="red" stroke-width="1" />
<line x1="200.94" y1="186.55" x2="178.21" y2="163.83"   stroke="red" stroke-width="1" />
<line x1="200.94" y1="186.55" x2="155.48" y2="232.01"   stroke="blue" stroke-width="1" />
<line x1="246.39" y1="232.01" x2="223.67" y2="209.28"   stroke="blue" stroke-width="1" />
<line x1="246.39" y1="232.01" x2="200.94" y2="277.46"   stroke="blue" stroke-width="1" />
<line x1="223.67" y1="209.28" x2="200.94" y2="186.55"   stroke="blue" stroke-width="1" />
<line x1="223.67" y1="118.37" x2="212.3" y2="129.73"   stroke="red" stroke-width="1" />
<line x1="178.21" y1="163.83" x2="132.76" y2="209.28"   stroke="red" stroke-width="1" />
<line x1="269.12" y1="163.83" x2="235.03" y2="129.73"   stroke="red" stroke-width="1" />
<line x1="87.3" y1="118.37" x2="98.67" y2="118.37"   stroke="black" stroke-width="1" />
<line x1="41.85" y1="163.83" x2="41.85" y2="175.19"   stroke="black" stroke-width="1" />
<line x1="269.12" y1="254.73" x2="269.12" y2="209.28"   stroke="blue" stroke-width="1" />
<line x1="314.58" y1="209.28" x2="269.12" y2="209.28"   stroke="blue" stroke-width="1" />
<line x1="132.76" y1="345.64" x2="110.03" y2="322.92"   stroke="blue" stroke-width="1" />
<line x1="41.85" y1="300.19" x2="132.76" y2="209.28"   stroke="blue" stroke-width="1" />
<line x1="41.85" y1="300.19" x2="41.85" y2="357.01"   stroke="black" stroke-width="1" />
<line x1="87.3" y1="345.64" x2="41.85" y2="300.19"   stroke="blue" stroke-width="1" />
<line x1="132.76" y1="300.19" x2="110.03" y2="322.92"   stroke="blue" stroke-width="1" />
<line x1="110.03" y1="322.92" x2="87.3" y2="345.64"   stroke="red" stroke-width="1" />
<line x1="110.03" y1="322.92" x2="87.3" y2="300.19"   stroke="blue" stroke-width="1" />
<line x1="87.3" y1="300.19" x2="41.85" y2="300.19"   stroke="blue" stroke-width="1" />
<line x1="87.3" y1="391.1" x2="98.67" y2="379.73"   stroke="blue" stroke-width="1" />
<line x1="110.03" y1="368.37" x2="132.76" y2="345.64"   stroke="blue" stroke-width="1" />
<line x1="110.03" y1="368.37" x2="132.76" y2="391.1"   stroke="red" stroke-width="1" />
<line x1="223.67" y1="209.28" x2="178.21" y2="254.73"   stroke="red" stroke-width="1" />
<line x1="178.21" y1="254.73" x2="132.76" y2="300.19"   stroke="red" stroke-width="1" />
<line x1="41.85" y1="391.1" x2="41.85" y2="402.46"   stroke="black" stroke-width="1" />
<line x1="132.76" y1="118.37" x2="161.12" y2="118.37"   stroke="black" stroke-width="1" />
<line x1="132.76" y1="209.28" x2="83.17" y2="209.28"   stroke="red" stroke-width="1" />
<line x1="98.67" y1="175.19" x2="83.17" y2="209.28"   stroke="blue" stroke-width="1" />
<line x1="83.17" y1="209.28" x2="41.85" y2="300.19"   stroke="red" stroke-width="1" />
<line x1="132.76" y1="209.28" x2="98.67" y2="175.19"   stroke="red" stroke-width="1" />
<line x1="98.67" y1="118.37" x2="98.67" y2="175.19"   stroke="red" stroke-width="1" />
<line x1="98.67" y1="118.37" x2="132.76" y2="118.37"   stroke="black" stroke-width="1" />
<line x1="41.85" y1="141.1" x2="41.85" y2="152.46"   stroke="black" stroke-width="1" />
<line x1="41.85" y1="118.37" x2="98.67" y2="175.19"   stroke="blue" stroke-width="1" />
<line x1="98.67" y1="175.19" x2="41.85" y2="175.19"   stroke="blue" stroke-width="1" />
<line x1="41.85" y1="175.19" x2="41.85" y2="300.19"   stroke="black" stroke-width="1" />
<line x1="41.85" y1="175.19" x2="83.17" y2="209.28"   stroke="red" stroke-width="1" />
<line x1="41.85" y1="152.46" x2="98.67" y2="175.19"   stroke="red" stroke-width="1" />
<line x1="41.85" y1="152.46" x2="41.85" y2="163.83"   stroke="black" stroke-width="1" />
<line x1="98.67" y1="175.19" x2="75.94" y2="118.37"   stroke="blue" stroke-width="1" />
<line x1="75.94" y1="118.37" x2="87.3" y2="118.37"   stroke="black" stroke-width="1" />
<line x1="223.67" y1="118.37" x2="212.3" y2="123.54"   stroke="blue" stroke-width="1" />
<line x1="161.17" y1="146.78" x2="178.21" y2="163.83"   stroke="blue" stroke-width="1" />
<line x1="161.17" y1="146.78" x2="161.12" y2="146.8"   stroke="blue" stroke-width="1" />
<line x1="166.85" y1="118.37" x2="212.3" y2="118.37"   stroke="black" stroke-width="1" />
<line x1="161.12" y1="117.89" x2="161.12" y2="118.37"   stroke="red" stroke-width="1" />
<line x1="161.12" y1="118.37" x2="161.12" y2="146.8"   stroke="red" stroke-width="1" />
<line x1="161.12" y1="118.37" x2="166.85" y2="118.37"   stroke="black" stroke-width="1" />
<line x1="161.12" y1="146.8" x2="98.67" y2="175.19"   stroke="blue" stroke-width="1" />
<line x1="212.3" y1="129.73" x2="178.21" y2="163.83"   stroke="red" stroke-width="1" />
<line x1="212.3" y1="123.54" x2="208.19" y2="125.41"   stroke="blue" stroke-width="1" />
<line x1="212.3" y1="118.37" x2="223.67" y2="118.37"   stroke="black" stroke-width="1" />
<line x1="235.03" y1="129.73" x2="223.67" y2="129.73"   stroke="red" stroke-width="1" />
<line x1="223.67" y1="129.73" x2="212.3" y2="129.73"   stroke="red" stroke-width="1" />
<line x1="223.67" y1="129.73" x2="223.67" y2="163.83"   stroke="blue" stroke-width="1" />
<line x1="235.03" y1="129.73" x2="223.67" y2="118.37"   stroke="red" stroke-width="1" />
<line x1="235.03" y1="118.37" x2="291.85" y2="118.37"   stroke="black" stroke-width="1" />
<line x1="208.1" y1="125.31" x2="208.19" y2="125.41"   stroke="red" stroke-width="1" />
<line x1="208.19" y1="125.41" x2="212.3" y2="129.73"   stroke="red" stroke-width="1" />
<line x1="208.19" y1="125.41" x2="161.17" y2="146.78"   stroke="blue" stroke-width="1" />
<line x1="212.3" y1="118.37" x2="208.1" y2="125.31"   stroke="red" stroke-width="1" />
<line x1="314.58" y1="186.55" x2="314.58" y2="197.92"   stroke="blue" stroke-width="1" />
<line x1="314.58" y1="152.46" x2="309.79" y2="150.67"   stroke="blue" stroke-width="1" />
<line x1="314.58" y1="186.55" x2="314.58" y2="152.46"   stroke="blue" stroke-width="1" />
<line x1="289.78" y1="143.16" x2="269.12" y2="163.83"   stroke="red" stroke-width="1" />
<line x1="289.78" y1="143.16" x2="239.49" y2="124.31"   stroke="blue" stroke-width="1" />
<line x1="314.58" y1="197.92" x2="314.58" y2="209.28"   stroke="blue" stroke-width="1" />
<line x1="314.58" y1="186.55" x2="300.59" y2="162.08"   stroke="red" stroke-width="1" />
<line x1="309.79" y1="150.67" x2="308.51" y2="150.19"   stroke="blue" stroke-width="1" />
<line x1="300.59" y1="162.08" x2="289.78" y2="143.16"   stroke="red" stroke-width="1" />
<line x1="308.51" y1="150.19" x2="300.59" y2="162.08"   stroke="red" stroke-width="1" />
<line x1="308.51" y1="150.19" x2="289.78" y2="143.16"   stroke="blue" stroke-width="1" />
<line x1="300.59" y1="162.08" x2="269.12" y2="163.83"   stroke="blue" stroke-width="1" />
<line x1="342.98" y1="180.87" x2="331.62" y2="169.51"   stroke="red" stroke-width="1" />
<line x1="331.62" y1="169.51" x2="314.58" y2="152.46"   stroke="red" stroke-width="1" />
<line x1="331.62" y1="169.51" x2="314.58" y2="186.55"   stroke="blue" stroke-width="1" />
<line x1="405.48" y1="118.37" x2="331.62" y2="169.51"   stroke="red" stroke-width="1" />
<line x1="405.48" y1="118.37" x2="314.58" y2="152.46"   stroke="blue" stroke-width="1" />
<line x1="289.78" y1="143.16" x2="317.05" y2="137.32"   stroke="blue" stroke-width="1" />
<line x1="329.61" y1="118.37" x2="405.48" y2="118.37"   stroke="black" stroke-width="1" />
<line x1="317.05" y1="137.32" x2="308.51" y2="150.19"   stroke="blue" stroke-width="1" />
<line x1="317.05" y1="137.32" x2="405.48" y2="118.37"   stroke="blue" stroke-width="1" />
<line x1="303.21" y1="118.37" x2="329.61" y2="118.37"   stroke="black" stroke-width="1" />
<line x1="317.05" y1="137.32" x2="291.85" y2="118.37"   stroke="red" stroke-width="1" />
<line x1="291.85" y1="118.37" x2="303.21" y2="118.37"   stroke="black" stroke-width="1" />
<line x1="289.78" y1="143.16" x2="291.85" y2="118.37"   stroke="blue" stroke-width="1" />
<line x1="239.55" y1="124.39" x2="235.03" y2="129.73"   stroke="red" stroke-width="1" />
<line x1="235.03" y1="118.37" x2="239.49" y2="124.31"   stroke="red" stroke-width="1" />
<line x1="239.49" y1="124.31" x2="239.55" y2="124.39"   stroke="red" stroke-width="1" />
<line x1="239.49" y1="124.31" x2="223.67" y2="118.37"   stroke="blue" stroke-width="1" />
<line x1="41.85" y1="300.19" x2="64.58" y2="368.37"   stroke="red" stroke-width="1" />
<line x1="87.3" y1="345.64" x2="64.58" y2="368.37"   stroke="red" stroke-width="1" />
<line x1="64.58" y1="391.1" x2="64.58" y2="379.73"   stroke="red" stroke-width="1" />
<line x1="87.3" y1="391.1" x2="64.58" y2="391.1"   stroke="blue" stroke-width="1" />
<line x1="98.67" y1="379.73" x2="64.58" y2="379.73"   stroke="red" stroke-width="1" />
<line x1="98.67" y1="379.73" x2="110.03" y2="368.37"   stroke="blue" stroke-width="1" />
<line x1="64.58" y1="379.73" x2="64.58" y2="368.37"   stroke="red" stroke-width="1" />
<line x1="98.67" y1="391.1" x2="98.67" y2="379.73"   stroke="blue" stroke-width="1" />
<line x1="98.67" y1="391.1" x2="132.76" y2="391.1"   stroke="red" stroke-width="1" />
<line x1="98.67" y1="402.46" x2="98.67" y2="391.1"   stroke="red" stroke-width="1" />
<line x1="98.67" y1="402.46" x2="87.3" y2="391.1"   stroke="blue" stroke-width="1" />
<line x1="53.21" y1="402.46" x2="53.21" y2="379.73"   stroke="red" stroke-width="1" />
<line x1="98.67" y1="402.46" x2="53.21" y2="402.46"   stroke="blue" stroke-width="1" />
<line x1="64.58" y1="379.73" x2="53.21" y2="379.73"   stroke="blue" stroke-width="1" />
<line x1="64.58" y1="391.1" x2="53.21" y2="379.73"   stroke="blue" stroke-width="1" />
<line x1="53.21" y1="402.46" x2="64.58" y2="391.1"   stroke="blue" stroke-width="1" />
<line x1="41.85" y1="368.37" x2="53.21" y2="379.73"   stroke="blue" stroke-width="1" />
<line x1="41.85" y1="368.37" x2="41.85" y2="391.1"   stroke="black" stroke-width="1" />
<line x1="41.85" y1="357.01" x2="64.58" y2="368.37"   stroke="blue" stroke-width="1" />
<line x1="41.85" y1="357.01" x2="41.85" y2="368.37"   stroke="black" stroke-width="1" />
<line x1="41.85" y1="413.83" x2="53.21" y2="402.46"   stroke="blue" stroke-width="1" />
<line x1="41.85" y1="413.83" x2="41.85" y2="425.19"   stroke="black" stroke-width="1" />
<line x1="53.21" y1="425.19" x2="53.21" y2="402.46"   stroke="blue" stroke-width="1" />
<line x1="53.21" y1="402.46" x2="41.85" y2="402.46"   stroke="red" stroke-width="1" />
<line x1="41.85" y1="402.46" x2="41.85" y2="413.83"   stroke="black" stroke-width="1" />
<line x1="53.21" y1="436.55" x2="53.21" y2="428.98"   stroke="red" stroke-width="1" />
<line x1="53.21" y1="436.55" x2="53.21" y2="459.28"   stroke="red" stroke-width="1" />
<line x1="41.85" y1="470.64" x2="41.85" y2="482.01"   stroke="black" stroke-width="1" />
<line x1="41.85" y1="459.28" x2="53.21" y2="459.28"   stroke="blue" stroke-width="1" />
<line x1="41.85" y1="459.28" x2="41.85" y2="470.64"   stroke="black" stroke-width="1" />
<line x1="41.85" y1="447.92" x2="41.85" y2="459.28"   stroke="black" stroke-width="1" />
<line x1="53.21" y1="459.28" x2="41.85" y2="436.55"   stroke="red" stroke-width="1" />
<line x1="41.85" y1="436.55" x2="41.85" y2="447.92"   stroke="black" stroke-width="1" />
<line x1="75.94" y1="436.55" x2="53.21" y2="436.55"   stroke="blue" stroke-width="1" />
<line x1="53.21" y1="436.55" x2="41.85" y2="436.55"   stroke="blue" stroke-width="1" />
<line x1="41.85" y1="425.19" x2="53.21" y2="428.98"   stroke="red" stroke-width="1" />
<line x1="41.85" y1="425.19" x2="41.85" y2="436.55"   stroke="black" stroke-width="1" />
<line x1="53.21" y1="428.98" x2="75.94" y2="436.55"   stroke="red" stroke-width="1" />
<line x1="53.21" y1="428.98" x2="53.21" y2="425.19"   stroke="blue" stroke-width="1" />
<line x1="110.03" y1="413.83" x2="98.67" y2="402.46"   stroke="blue" stroke-width="1" />
<line x1="58.89" y1="464.96" x2="53.21" y2="459.28"   stroke="red" stroke-width="1" />
<line x1="47.53" y1="476.33" x2="41.85" y2="470.64"   stroke="blue" stroke-width="1" />
<line x1="405.48" y1="482.01" x2="382.76" y2="482.01"   stroke="black" stroke-width="1" />
<line x1="405.48" y1="482.01" x2="405.48" y2="447.92"   stroke="black" stroke-width="1" />
<line x1="314.58" y1="209.28" x2="269.12" y2="254.73"   stroke="red" stroke-width="1" />
<line x1="223.67" y1="300.19" x2="155.48" y2="368.37"   stroke="red" stroke-width="1" />
<line x1="223.67" y1="300.19" x2="246.39" y2="322.92"   stroke="red" stroke-width="1" />
<line x1="132.76" y1="391.1" x2="178.21" y2="391.1"   stroke="red" stroke-width="1" />
<line x1="223.67" y1="391.1" x2="223.67" y2="436.55"   stroke="red" stroke-width="1" />
<line x1="178.21" y1="436.55" x2="155.48" y2="413.83"   stroke="red" stroke-width="1" />
<line x1="132.76" y1="436.55" x2="132.76" y2="425.19"   stroke="red" stroke-width="1" />
<line x1="269.12" y1="345.64" x2="223.67" y2="345.64"   stroke="red" stroke-width="1" />
<line x1="269.12" y1="345.64" x2="291.85" y2="368.37"   stroke="red" stroke-width="1" />
<line x1="269.12" y1="391.1" x2="314.58" y2="391.1"   stroke="red" stroke-width="1" />
<line x1="223.67" y1="300.19" x2="223.67" y2="345.64"   stroke="blue" stroke-width="1" />
<line x1="269.12" y1="345.64" x2="269.12" y2="391.1"   stroke="blue" stroke-width="1" />
<line x1="360.03" y1="300.19" x2="337.3" y2="322.92"   stroke="blue" stroke-width="1" />
<line x1="291.85" y1="368.37" x2="269.12" y2="391.1"   stroke="blue" stroke-width="1" />
<line x1="291.85" y1="368.37" x2="314.58" y2="391.1"   stroke="blue" stroke-width="1" />
<line x1="269.12" y1="391.1" x2="223.67" y2="436.55"   stroke="blue" stroke-width="1" />
<line x1="314.58" y1="254.73" x2="291.85" y2="277.46"   stroke="blue" stroke-width="1" />
<line x1="246.39" y1="322.92" x2="223.67" y2="345.64"   stroke="blue" stroke-width="1" />
<line x1="246.39" y1="322.92" x2="269.12" y2="345.64"   stroke="blue" stroke-width="1" />
<line x1="314.58" y1="254.73" x2="337.3" y2="277.46"   stroke="blue" stroke-width="1" />
<line x1="223.67" y1="345.64" x2="178.21" y2="391.1"   stroke="blue" stroke-width="1" />
<line x1="178.21" y1="391.1" x2="223.67" y2="391.1"   stroke="red" stroke-width="1" />
<line x1="155.48" y1="368.37" x2="178.21" y2="391.1"   stroke="blue" stroke-width="1" />
<line x1="155.48" y1="368.37" x2="132.76" y2="391.1"   stroke="red" stroke-width="1" />
<line x1="314.58" y1="300.19" x2="360.03" y2="300.19"   stroke="red" stroke-width="1" />
<line x1="314.58" y1="254.73" x2="314.58" y2="300.19"   stroke="red" stroke-width="1" />
<line x1="405.48" y1="300.19" x2="394.12" y2="300.19"   stroke="red" stroke-width="1" />
<line x1="405.48" y1="300.19" x2="405.48" y2="288.83"   stroke="black" stroke-width="1" />
<line x1="360.03" y1="254.73" x2="337.3" y2="277.46"   stroke="blue" stroke-width="1" />
<line x1="337.3" y1="277.46" x2="314.58" y2="300.19"   stroke="red" stroke-width="1" />
<line x1="337.3" y1="277.46" x2="360.03" y2="300.19"   stroke="blue" stroke-width="1" />
<line x1="360.03" y1="254.73" x2="314.58" y2="254.73"   stroke="red" stroke-width="1" />
<line x1="314.58" y1="209.28" x2="360.03" y2="254.73"   stroke="red" stroke-width="1" />
<line x1="269.12" y1="254.73" x2="291.85" y2="277.46"   stroke="red" stroke-width="1" />
<line x1="269.12" y1="254.73" x2="223.67" y2="300.19"   stroke="red" stroke-width="1" />
<line x1="337.3" y1="322.92" x2="360.03" y2="345.64"   stroke="red" stroke-width="1" />
<line x1="337.3" y1="322.92" x2="291.85" y2="368.37"   stroke="blue" stroke-width="1" />
<line x1="291.85" y1="277.46" x2="314.58" y2="300.19"   stroke="blue" stroke-width="1" />
<line x1="291.85" y1="277.46" x2="246.39" y2="322.92"   stroke="blue" stroke-width="1" />
<line x1="314.58" y1="300.19" x2="337.3" y2="322.92"   stroke="blue" stroke-width="1" />
<line x1="405.48" y1="300.19" x2="394.12" y2="311.55"   stroke="red" stroke-width="1" />
<line x1="360.03" y1="345.64" x2="314.58" y2="391.1"   stroke="red" stroke-width="1" />
<line x1="360.03" y1="254.73" x2="394.12" y2="288.83"   stroke="red" stroke-width="1" />
<line x1="405.48" y1="436.55" x2="405.48" y2="425.19"   stroke="black" stroke-width="1" />
<line x1="360.03" y1="482.01" x2="348.67" y2="482.01"   stroke="black" stroke-width="1" />
<line x1="405.48" y1="118.37" x2="348.67" y2="175.19"   stroke="red" stroke-width="1" />
<line x1="269.12" y1="254.73" x2="314.58" y2="254.73"   stroke="blue" stroke-width="1" />
<line x1="314.58" y1="209.28" x2="314.58" y2="254.73"   stroke="blue" stroke-width="1" />
<line x1="178.21" y1="391.1" x2="200.94" y2="413.83"   stroke="blue" stroke-width="1" />
<line x1="223.67" y1="482.01" x2="314.58" y2="391.1"   stroke="blue" stroke-width="1" />
<line x1="223.67" y1="482.01" x2="166.85" y2="482.01"   stroke="black" stroke-width="1" />
<line x1="178.21" y1="436.55" x2="223.67" y2="482.01"   stroke="blue" stroke-width="1" />
<line x1="223.67" y1="391.1" x2="200.94" y2="413.83"   stroke="blue" stroke-width="1" />
<line x1="200.94" y1="413.83" x2="178.21" y2="436.55"   stroke="red" stroke-width="1" />
<line x1="200.94" y1="413.83" x2="223.67" y2="436.55"   stroke="blue" stroke-width="1" />
<line x1="223.67" y1="436.55" x2="223.67" y2="482.01"   stroke="blue" stroke-width="1" />
<line x1="132.76" y1="436.55" x2="144.12" y2="425.19"   stroke="blue" stroke-width="1" />
<line x1="155.48" y1="413.83" x2="178.21" y2="391.1"   stroke="blue" stroke-width="1" />
<line x1="155.48" y1="413.83" x2="132.76" y2="391.1"   stroke="red" stroke-width="1" />
<line x1="314.58" y1="300.19" x2="269.12" y2="345.64"   stroke="red" stroke-width="1" />
<line x1="269.12" y1="345.64" x2="223.67" y2="391.1"   stroke="red" stroke-width="1" />
<line x1="132.76" y1="482.01" x2="121.39" y2="482.01"   stroke="black" stroke-width="1" />
<line x1="405.48" y1="391.1" x2="405.48" y2="362.74"   stroke="black" stroke-width="1" />
<line x1="314.58" y1="391.1" x2="314.58" y2="440.69"   stroke="red" stroke-width="1" />
<line x1="348.67" y1="425.19" x2="314.58" y2="440.69"   stroke="blue" stroke-width="1" />
<line x1="314.58" y1="440.69" x2="223.67" y2="482.01"   stroke="red" stroke-width="1" />
<line x1="314.58" y1="391.1" x2="348.67" y2="425.19"   stroke="red" stroke-width="1" />
<line x1="405.48" y1="425.19" x2="348.67" y2="425.19"   stroke="red" stroke-width="1" />
<line x1="405.48" y1="425.19" x2="405.48" y2="391.1"   stroke="black" stroke-width="1" />
<line x1="382.76" y1="482.01" x2="371.39" y2="482.01"   stroke="black" stroke-width="1" />
<line x1="405.48" y1="482.01" x2="348.67" y2="425.19"   stroke="blue" stroke-width="1" />
<line x1="348.67" y1="425.19" x2="348.67" y2="482.01"   stroke="blue" stroke-width="1" />
<line x1="348.67" y1="482.01" x2="223.67" y2="482.01"   stroke="black" stroke-width="1" />
<line x1="348.67" y1="482.01" x2="314.58" y2="440.69"   stroke="red" stroke-width="1" />
<line x1="371.39" y1="482.01" x2="348.67" y2="425.19"   stroke="red" stroke-width="1" />
<line x1="371.39" y1="482.01" x2="360.03" y2="482.01"   stroke="black" stroke-width="1" />
<line x1="348.67" y1="425.19" x2="405.48" y2="447.92"   stroke="blue" stroke-width="1" />
<line x1="405.48" y1="447.92" x2="405.48" y2="436.55"   stroke="black" stroke-width="1" />
<line x1="405.48" y1="300.19" x2="400.32" y2="311.55"   stroke="blue" stroke-width="1" />
<line x1="377.08" y1="362.69" x2="360.03" y2="345.64"   stroke="blue" stroke-width="1" />
<line x1="377.08" y1="362.69" x2="377.05" y2="362.74"   stroke="blue" stroke-width="1" />
<line x1="405.48" y1="357.01" x2="405.48" y2="311.55"   stroke="black" stroke-width="1" />
<line x1="405.96" y1="362.74" x2="405.48" y2="362.74"   stroke="red" stroke-width="1" />
<line x1="405.48" y1="362.74" x2="377.05" y2="362.74"   stroke="red" stroke-width="1" />
<line x1="405.48" y1="362.74" x2="405.48" y2="357.01"   stroke="black" stroke-width="1" />
<line x1="377.05" y1="362.74" x2="348.67" y2="425.19"   stroke="blue" stroke-width="1" />
<line x1="394.12" y1="311.55" x2="360.03" y2="345.64"   stroke="red" stroke-width="1" />
<line x1="400.32" y1="311.55" x2="398.45" y2="315.67"   stroke="blue" stroke-width="1" />
<line x1="405.48" y1="311.55" x2="405.48" y2="300.19"   stroke="black" stroke-width="1" />
<line x1="394.12" y1="288.83" x2="394.12" y2="300.19"   stroke="red" stroke-width="1" />
<line x1="394.12" y1="300.19" x2="394.12" y2="311.55"   stroke="red" stroke-width="1" />
<line x1="394.12" y1="300.19" x2="360.03" y2="300.19"   stroke="blue" stroke-width="1" />
<line x1="394.12" y1="288.83" x2="405.48" y2="300.19"   stroke="red" stroke-width="1" />
<line x1="405.48" y1="288.83" x2="405.48" y2="232.01"   stroke="black" stroke-width="1" />
<line x1="398.55" y1="315.76" x2="398.45" y2="315.67"   stroke="red" stroke-width="1" />
<line x1="398.45" y1="315.67" x2="394.12" y2="311.55"   stroke="red" stroke-width="1" />
<line x1="398.45" y1="315.67" x2="377.08" y2="362.69"   stroke="blue" stroke-width="1" />
<line x1="405.48" y1="311.55" x2="398.55" y2="315.76"   stroke="red" stroke-width="1" />
<line x1="348.67" y1="175.19" x2="342.98" y2="180.87"   stroke="red" stroke-width="1" />
<line x1="338.5" y1="185.36" x2="314.58" y2="209.28"   stroke="blue" stroke-width="1" />
<line x1="337.3" y1="209.28" x2="325.94" y2="209.28"   stroke="blue" stroke-width="1" />
<line x1="371.39" y1="209.28" x2="373.19" y2="214.06"   stroke="blue" stroke-width="1" />
<line x1="337.3" y1="209.28" x2="371.39" y2="209.28"   stroke="blue" stroke-width="1" />
<line x1="380.69" y1="234.07" x2="360.03" y2="254.73"   stroke="red" stroke-width="1" />
<line x1="380.69" y1="234.07" x2="399.55" y2="284.36"   stroke="blue" stroke-width="1" />
<line x1="325.94" y1="209.28" x2="314.58" y2="209.28"   stroke="blue" stroke-width="1" />
<line x1="337.3" y1="209.28" x2="361.78" y2="223.27"   stroke="red" stroke-width="1" />
<line x1="373.19" y1="214.06" x2="373.67" y2="215.34"   stroke="blue" stroke-width="1" />
<line x1="361.78" y1="223.27" x2="380.69" y2="234.07"   stroke="red" stroke-width="1" />
<line x1="373.67" y1="215.34" x2="361.78" y2="223.27"   stroke="red" stroke-width="1" />
<line x1="373.67" y1="215.34" x2="380.69" y2="234.07"   stroke="blue" stroke-width="1" />
<line x1="361.78" y1="223.27" x2="360.03" y2="254.73"   stroke="blue" stroke-width="1" />
<line x1="342.98" y1="180.87" x2="354.35" y2="192.23"   stroke="red" stroke-width="1" />
<line x1="342.98" y1="180.87" x2="338.5" y2="185.36"   stroke="blue" stroke-width="1" />
<line x1="354.35" y1="192.23" x2="371.39" y2="209.28"   stroke="red" stroke-width="1" />
<line x1="354.35" y1="192.23" x2="337.3" y2="209.28"   stroke="blue" stroke-width="1" />
<line x1="405.48" y1="118.37" x2="354.35" y2="192.23"   stroke="red" stroke-width="1" />
<line x1="405.48" y1="118.37" x2="371.39" y2="209.28"   stroke="blue" stroke-width="1" />
<line x1="380.69" y1="234.07" x2="386.53" y2="206.81"   stroke="blue" stroke-width="1" />
<line x1="405.48" y1="194.25" x2="405.48" y2="118.37"   stroke="black" stroke-width="1" />
<line x1="386.53" y1="206.81" x2="373.67" y2="215.34"   stroke="blue" stroke-width="1" />
<line x1="386.53" y1="206.81" x2="405.48" y2="118.37"   stroke="blue" stroke-width="1" />
<line x1="405.48" y1="220.64" x2="405.48" y2="194.25"   stroke="black" stroke-width="1" />
<line x1="386.53" y1="206.81" x2="405.48" y2="232.01"   stroke="red" stroke-width="1" />
<line x1="405.48" y1="232.01" x2="405.48" y2="220.64"   stroke="black" stroke-width="1" />
<line x1="380.69" y1="234.07" x2="405.48" y2="232.01"   stroke="blue" stroke-width="1" />
<line x1="399.47" y1="284.3" x2="394.12" y2="288.83"   stroke="red" stroke-width="1" />
<line x1="405.48" y1="288.83" x2="399.55" y2="284.36"   stroke="red" stroke-width="1" />
<line x1="399.55" y1="284.36" x2="399.47" y2="284.3"   stroke="red" stroke-width="1" />
<line x1="399.55" y1="284.36" x2="405.48" y2="300.19"   stroke="blue" stroke-width="1" />
<line x1="223.67" y1="482.01" x2="155.48" y2="459.28"   stroke="red" stroke-width="1" />
<line x1="178.21" y1="436.55" x2="155.48" y2="459.28"   stroke="red" stroke-width="1" />
<line x1="132.76" y1="459.28" x2="144.12" y2="459.28"   stroke="red" stroke-width="1" />
<line x1="132.76" y1="436.55" x2="132.76" y2="459.28"   stroke="blue" stroke-width="1" />
<line x1="144.12" y1="425.19" x2="144.12" y2="459.28"   stroke="red" stroke-width="1" />
<line x1="144.12" y1="425.19" x2="155.48" y2="413.83"   stroke="blue" stroke-width="1" />
<line x1="144.12" y1="459.28" x2="155.48" y2="459.28"   stroke="red" stroke-width="1" />
<line x1="132.76" y1="425.19" x2="144.12" y2="425.19"   stroke="blue" stroke-width="1" />
<line x1="132.76" y1="425.19" x2="132.76" y2="391.1"   stroke="red" stroke-width="1" />
<line x1="121.39" y1="425.19" x2="132.76" y2="425.19"   stroke="red" stroke-width="1" />
<line x1="121.39" y1="425.19" x2="132.76" y2="436.55"   stroke="blue" stroke-width="1" />
<line x1="121.39" y1="470.64" x2="144.12" y2="470.64"   stroke="red" stroke-width="1" />
<line x1="121.39" y1="425.19" x2="121.39" y2="470.64"   stroke="blue" stroke-width="1" />
<line x1="144.12" y1="459.28" x2="144.12" y2="470.64"   stroke="blue" stroke-width="1" />
<line x1="132.76" y1="459.28" x2="144.12" y2="470.64"   stroke="blue" stroke-width="1" />
<line x1="121.39" y1="470.64" x2="132.76" y2="459.28"   stroke="blue" stroke-width="1" />
<line x1="155.48" y1="482.01" x2="144.12" y2="470.64"   stroke="blue" stroke-width="1" />
<line x1="155.48" y1="482.01" x2="132.76" y2="482.01"   stroke="black" stroke-width="1" />
<line x1="166.85" y1="482.01" x2="155.48" y2="459.28"   stroke="blue" stroke-width="1" />
<line x1="166.85" y1="482.01" x2="155.48" y2="482.01"   stroke="black" stroke-width="1" />
<line x1="110.03" y1="482.01" x2="121.39" y2="470.64"   stroke="blue" stroke-width="1" />
<line x1="110.03" y1="482.01" x2="98.67" y2="482.01"   stroke="black" stroke-width="1" />
<line x1="98.67" y1="470.64" x2="121.39" y2="470.64"   stroke="blue" stroke-width="1" />
<line x1="121.39" y1="470.64" x2="121.39" y2="482.01"   stroke="red" stroke-width="1" />
<line x1="121.39" y1="482.01" x2="110.03" y2="482.01"   stroke="black" stroke-width="1" />
<line x1="87.3" y1="470.64" x2="94.88" y2="470.64"   stroke="red" stroke-width="1" />
<line x1="87.3" y1="470.64" x2="64.58" y2="470.64"   stroke="red" stroke-width="1" />
<line x1="53.21" y1="482.01" x2="41.85" y2="482.01"   stroke="black" stroke-width="1" />
<line x1="64.58" y1="482.01" x2="64.58" y2="470.64"   stroke="blue" stroke-width="1" />
<line x1="64.58" y1="482.01" x2="53.21" y2="482.01"   stroke="black" stroke-width="1" />
<line x1="75.94" y1="482.01" x2="64.58" y2="482.01"   stroke="black" stroke-width="1" />
<line x1="64.58" y1="470.64" x2="87.3" y2="482.01"   stroke="red" stroke-width="1" />
<line x1="87.3" y1="482.01" x2="75.94" y2="482.01"   stroke="black" stroke-width="1" />
<line x1="87.3" y1="447.92" x2="87.3" y2="470.64"   stroke="blue" stroke-width="1" />
<line x1="87.3" y1="470.64" x2="87.3" y2="482.01"   stroke="blue" stroke-width="1" />
<line x1="98.67" y1="482.01" x2="94.88" y2="470.64"   stroke="red" stroke-width="1" />
<line x1="98.67" y1="482.01" x2="87.3" y2="482.01"   stroke="black" stroke-width="1" />
<line x1="94.88" y1="470.64" x2="87.3" y2="447.92"   stroke="red" stroke-width="1" />
<line x1="94.88" y1="470.64" x2="98.67" y2="470.64"   stroke="blue" stroke-width="1" />
<line x1="110.03" y1="413.83" x2="121.39" y2="425.19"   stroke="blue" stroke-width="1" />
<line x1="58.89" y1="464.96" x2="64.58" y2="470.64"   stroke="red" stroke-width="1" />
<line x1="47.53" y1="476.33" x2="53.21" y2="482.01"   stroke="blue" stroke-width="1" />
</g>
<g id="text">
<text style="font-family:sans-serif,Arial,Segoe UI;font-size:12px;" x="-2084.2" y="-18.5" fill="black"><tspan x="-2084.2" y="-18.5" fill="black"></tspan></text>
</g>
</svg>
